<?xml version="1.0" encoding="utf-8" ?>
<svg baseProfile="tiny" height="675" version="1.2" width="1200" xmlns="http://www.w3.org/2000/svg" xmlns:ev="http://www.w3.org/2001/xml-events" xmlns:xlink="http://www.w3.org/1999/xlink"><defs /><rect fill="#fff" height="675" width="1200" x="0" y="0" /><polygon fill="#000" fill-opacity="0.4" points="861,573 861,674 875,674 875,573" stroke="#000" stroke-width="5" /><polygon fill="#000" fill-opacity="0.4" points="1121,524 1120,525 1120,527 1119,528 1119,530 1118,531 1118,533 1117,534 1117,536 1116,537 1116,538 1115,539 1115,541 1114,542 1114,544 1113,545 1113,547 1112,548 1112,550 1116,550 1116,549 1117,548 1117,547 1118,546 1118,545 1119,544 1128,544 1129,545 1129,546 1130,547 1130,549 1131,550 1135,550 1135,548 1134,547 1134,545 1133,544 1133,542 1132,541 1132,539 1131,538 1131,536 1130,535 1130,534 1129,533 1129,531 1128,530 1128,528 1127,527 1127,525 1126,524" stroke="#000" stroke-width="5" /><polygon fill="#000" fill-opacity="0.4" points="1122,531 1123,530 1124,530 1125,531 1125,533 1126,534 1126,537 1127,538 1127,540 1126,541 1121,541 1120,540 1120,537 1121,536 1121,534 1122,533" stroke="#000" stroke-width="5" /><polygon fill="#000" fill-opacity="0.4" points="1091,524 1091,528 1098,528 1099,529 1099,550 1103,550 1103,529 1104,528 1111,528 1111,524" stroke="#000" stroke-width="5" /><polygon fill="#000" fill-opacity="0.4" points="1076,524 1076,526 1075,527 1075,528 1074,529 1074,531 1073,532 1073,534 1072,535 1072,537 1071,538 1071,540 1070,541 1070,542 1069,543 1069,545 1068,546 1068,548 1067,549 1067,550 1072,550 1072,548 1073,547 1073,546 1075,544 1083,544 1085,546 1085,547 1086,548 1086,550 1091,550 1091,549 1090,548 1090,546 1089,545 1089,544 1088,543 1088,541 1087,540 1087,538 1086,537 1086,535 1085,534 1085,532 1084,531 1084,529 1083,528 1083,527 1082,526 1082,524" stroke="#000" stroke-width="5" /><polygon fill="#000" fill-opacity="0.4" points="1078,531 1079,530 1080,531 1080,532 1081,533 1081,535 1082,536 1082,538 1083,539 1083,540 1082,541 1076,541 1075,540 1075,539 1076,538 1076,536 1077,535 1077,533 1078,532" stroke="#000" stroke-width="5" /><polygon fill="#000" fill-opacity="0.4" points="1042,524 1042,550 1055,550 1056,549 1058,549 1061,546 1061,545 1062,544 1062,542 1063,541 1063,532 1062,531 1062,529 1058,525 1057,525 1056,524" stroke="#000" stroke-width="5" /><polygon fill="#000" fill-opacity="0.4" points="1046,529 1047,528 1055,528 1058,531 1058,533 1059,534 1059,539 1058,540 1058,542 1057,543 1057,544 1056,545 1055,545 1054,546 1047,546 1046,545" stroke="#000" stroke-width="5" /><polygon fill="#000" fill-opacity="0.4" points="1004,524 1004,550 1008,550 1008,532 1009,531 1010,532 1010,533 1011,534 1011,535 1013,537 1013,538 1014,539 1014,540 1016,542 1016,543 1017,544 1017,545 1018,546 1018,547 1020,549 1020,550 1025,550 1025,524 1021,524 1021,541 1020,542 1018,540 1018,539 1016,537 1016,536 1015,535 1015,534 1014,533 1014,532 1012,530 1012,529 1011,528 1011,527 1010,526 1010,525 1009,524" stroke="#000" stroke-width="5" /><polygon fill="#000" fill-opacity="0.4" points="985,524 984,525 984,527 983,528 983,529 982,530 982,532 981,533 981,535 980,536 980,538 979,539 979,541 978,542 978,543 977,544 977,546 976,547 976,549 975,550 980,550 980,549 981,548 981,546 983,544 992,544 993,545 993,546 994,547 994,549 995,550 999,550 999,548 998,547 998,545 997,544 997,543 996,542 996,540 995,539 995,537 994,536 994,534 993,533 993,531 992,530 992,528 991,527 991,526 990,525 990,524" stroke="#000" stroke-width="5" /><polygon fill="#000" fill-opacity="0.4" points="986,531 987,530 989,532 989,534 990,535 990,537 991,538 991,540 990,541 984,541 983,540 984,539 984,537 985,536 985,534 986,533" stroke="#000" stroke-width="5" /><polygon fill="#000" fill-opacity="0.4" points="950,524 950,550 965,550 966,549 967,549 968,548 969,548 970,547 970,546 971,545 971,540 970,539 970,538 969,537 968,537 967,536 970,533 970,528 969,527 969,526 968,525 966,525 965,524" stroke="#000" stroke-width="5" /><polygon fill="#000" fill-opacity="0.4" points="954,539 955,538 964,538 967,541 967,543 964,546 955,546 954,545" stroke="#000" stroke-width="5" /><polygon fill="#000" fill-opacity="0.4" points="954,529 955,528 964,528 966,530 966,532 963,535 955,535 954,534" stroke="#000" stroke-width="5" /><polygon fill="#000" fill-opacity="0.4" points="923,524 923,550 927,550 927,541 929,539 935,539 936,540 937,540 938,541 938,542 939,543 939,550 944,550 944,549 943,548 943,541 942,540 942,539 941,539 940,538 943,535 943,534 944,533 944,529 943,528 943,527 941,525 940,525 939,524" stroke="#000" stroke-width="5" /><polygon fill="#000" fill-opacity="0.4" points="927,529 928,528 937,528 939,530 939,531 940,532 939,533 939,534 937,536 928,536 927,535" stroke="#000" stroke-width="5" /><polygon fill="#000" fill-opacity="0.4" points="896,524 896,545 897,546 897,547 899,549 900,549 901,550 911,550 912,549 913,549 915,547 915,546 916,545 916,524 912,524 912,543 911,544 911,545 910,546 909,546 908,547 904,547 901,544 901,543 900,542 900,524" stroke="#000" stroke-width="5" /><polygon fill="#000" fill-opacity="0.4" points="128,427 128,428 127,429 127,431 126,432 126,434 125,435 125,437 124,438 125,439 123,441 123,443 122,444 122,446 121,447 121,449 120,450 120,452 119,453 119,455 118,456 118,457 137,457 137,455 136,454 136,452 135,451 135,449 134,448 134,446 133,445 133,443 132,442 132,440 131,439 131,437 130,436 130,433 129,432 129,430 128,429" stroke="#000" stroke-width="5" /><polygon fill="#000" fill-opacity="0.4" points="468,408 468,457 467,458 467,485 467,484 468,483 468,482 469,481 469,480 470,479 470,478 471,477 471,475 472,474 472,473 473,472 473,471 474,470 474,469 475,468 475,466 476,465 476,464 477,463 477,462 478,461 478,460 479,459 479,458 480,457 480,455 481,454 481,453 482,452 482,451 483,450 483,449 484,448 484,446 485,445 485,444 486,443 486,442 487,441 487,440 488,439 488,438 489,437 489,435 490,434 490,433 491,432 491,431 492,430 492,429 493,428 493,426 494,425 494,424 495,423 495,422 477,422 475,420 475,408" stroke="#000" stroke-width="5" /><polygon fill="#000" fill-opacity="0.4" points="382,408 383,409 383,413 384,414 384,417 385,418 385,421 386,422 386,426 387,427 387,430 388,431 388,434 389,435 389,439 390,440 390,443 391,444 391,447 392,448 392,452 393,453 393,456 394,457 394,460 395,461 395,465 396,466 396,469 396,468 397,467 397,466 396,465 397,464 397,463 398,462 398,459 399,458 399,455 400,454 400,453 399,452 400,451 400,450 401,449 401,446 402,445 402,441 403,440 403,437 404,436 404,433 405,432 405,428 406,427 406,424 407,423 407,420 408,419 408,415 409,414 409,411 410,410 410,408" stroke="#000" stroke-width="5" /><polygon fill="#000" fill-opacity="0.4" points="276,408 276,437 306,437 306,408" stroke="#000" stroke-width="5" /><polygon fill="#000" fill-opacity="0.4" points="54,407 53,408 26,408 26,411 27,412 27,415 28,416 28,419 29,420 29,424 30,425 30,428 31,429 31,432 32,433 32,437 33,438 33,441 34,442 34,445 35,446 35,450 36,451 36,454 37,455 37,458 38,459 38,463 39,464 39,467 40,468 40,469 40,466 41,465 41,461 42,460 42,457 43,456 43,453 44,452 44,448 45,447 45,444 46,443 46,439 47,438 47,435 48,434 48,431 49,430 49,426 50,425 50,422 51,421 51,418 52,417 52,416 51,415 52,414 52,413 53,412 53,409 54,408" stroke="#000" stroke-width="5" /><polygon fill="#000" fill-opacity="0.4" points="0,407 0,674 382,674 382,673 383,672 383,671 384,670 384,669 385,668 385,667 386,666 386,665 387,664 387,662 388,661 388,660 389,659 389,658 390,657 390,656 391,655 391,653 392,652 392,651 393,650 393,649 394,648 394,647 395,646 395,645 396,644 396,642 397,641 397,640 398,639 398,638 399,637 399,636 400,635 400,633 401,632 401,631 402,630 402,629 403,628 403,627 404,626 404,624 405,623 405,622 406,621 406,620 407,619 407,618 408,617 408,616 409,615 409,613 410,612 410,611 411,610 411,609 412,608 412,607 413,606 413,604 414,603 414,602 415,601 415,600 416,599 416,598 417,597 417,596 418,595 418,593 419,592 419,591 420,590 420,589 421,588 421,587 422,586 422,584 423,583 423,582 424,581 424,580 425,579 425,578 426,577 426,576 427,575 427,573 428,572 428,571 429,570 429,569 430,568 430,567 431,566 431,564 432,563 432,562 433,561 433,560 434,559 434,558 435,557 435,556 436,555 436,553 437,552 437,551 438,550 438,549 439,548 439,547 440,546 440,544 441,543 441,542 442,541 442,540 443,539 443,538 444,537 444,535 445,534 445,533 446,532 446,531 447,530 447,529 448,528 448,527 449,526 449,524 450,523 450,522 451,521 451,520 452,519 452,518 453,517 453,515 454,514 454,513 455,512 455,511 456,510 456,509 457,508 457,507 458,506 458,504 459,503 459,502 460,501 460,500 461,499 461,498 462,497 462,495 463,494 463,493 464,492 464,491 465,490 465,489 450,489 449,488 449,408 436,408 436,488 435,489 420,489 419,488 419,424 419,428 418,429 418,432 417,433 417,436 416,437 416,441 415,442 415,445 414,446 414,450 413,451 413,454 412,455 412,459 411,460 411,463 410,464 410,468 409,469 409,472 408,473 408,476 407,477 407,481 406,482 406,485 405,486 405,488 404,489 388,489 387,488 387,486 386,485 386,482 385,481 385,478 384,477 384,473 383,472 383,469 382,468 382,464 381,463 381,460 380,459 380,455 379,454 379,451 378,450 378,446 377,445 377,442 376,441 376,440 375,439 376,438 376,437 375,436 375,433 374,432 374,428 373,427 373,424 373,428 374,429 374,488 373,489 357,489 356,488 356,408 326,408 326,488 325,489 307,489 306,488 306,453 276,453 276,488 275,489 259,489 258,488 258,408 227,408 228,408 229,409 230,409 231,410 232,410 234,412 235,412 240,417 240,418 242,420 242,421 243,422 243,423 244,424 244,425 245,426 245,428 246,429 246,434 245,435 229,435 228,434 228,432 227,431 227,430 226,429 226,428 225,427 225,426 222,423 221,423 220,422 219,422 218,421 213,421 212,420 210,420 209,421 205,421 204,422 203,422 202,423 201,423 196,428 196,429 195,430 195,431 194,432 194,433 193,434 193,437 192,438 192,443 191,444 191,453 192,454 192,459 193,460 193,462 194,463 194,465 195,466 195,467 201,473 202,473 203,474 204,474 205,475 217,475 218,474 219,474 220,473 221,473 225,469 225,468 226,467 226,466 227,465 227,464 228,463 228,461 229,460 245,460 246,461 246,464 245,465 245,468 244,469 244,470 243,471 243,472 242,473 242,474 241,475 241,476 237,480 237,481 235,483 234,483 231,486 230,486 228,488 227,488 226,489 224,489 223,490 220,490 219,491 202,491 201,490 198,490 197,489 196,489 195,488 194,488 193,487 192,487 191,486 190,486 188,484 187,484 182,479 182,478 179,475 179,474 178,473 178,472 177,471 177,470 176,469 176,467 175,466 175,464 174,463 174,459 173,458 173,438 174,437 174,433 175,432 175,430 176,429 176,427 177,426 177,425 178,424 178,423 180,421 180,420 183,417 183,416 185,414 186,414 190,410 191,410 192,409 193,409 194,408 195,408 139,408 139,410 140,411 140,413 141,414 141,416 142,417 142,418 143,419 143,421 144,422 144,424 145,425 145,427 146,428 146,430 147,431 147,433 148,434 148,435 149,436 149,438 150,439 150,441 151,442 151,444 152,445 152,447 153,448 153,449 154,450 154,452 155,453 155,455 156,456 156,458 157,459 157,461 158,462 158,464 159,465 159,466 160,467 160,469 161,470 161,472 162,473 162,475 163,476 163,478 164,479 164,481 165,482 165,483 166,484 166,486 167,487 167,488 166,489 148,489 147,488 147,486 146,485 146,483 145,482 145,480 144,479 144,477 143,476 143,473 142,472 113,472 113,473 112,474 112,476 111,477 111,479 110,480 110,482 109,483 109,485 108,486 108,488 107,489 90,489 89,488 89,486 90,485 90,484 91,483 91,481 92,480 92,478 93,477 93,475 94,474 94,472 95,471 95,469 96,468 96,467 97,466 97,464 98,463 98,461 99,460 99,458 100,457 100,455 101,454 101,453 102,452 102,450 103,449 103,447 104,446 104,444 105,443 105,441 106,440 106,439 107,438 107,436 108,435 108,433 109,432 109,430 110,429 110,427 111,426 111,425 112,424 112,422 113,421 113,419 114,418 114,416 115,415 115,413 116,412 116,411 117,410 117,408 80,408 80,488 79,489 64,489 63,488 63,425 62,426 62,430 61,431 61,434 60,435 60,439 59,440 59,443 58,444 58,448 57,449 57,452 56,453 56,457 55,458 55,461 54,462 54,465 53,466 53,470 52,471 52,474 51,475 51,479 50,480 50,483 49,484 49,488 48,489 31,489 30,488 30,484 29,483 29,480 28,479 28,475 27,474 27,471 26,470 26,466 25,465 25,462 24,461 24,457 23,456 23,453 22,452 22,451 21,450 22,449 22,448 21,447 21,444 20,443 20,439 19,438 19,435 18,434 18,430 17,429 17,426 17,487 15,489 1,489 0,488" stroke="#000" stroke-width="5" /><polygon fill="#000" fill-opacity="0.4" points="519,348 519,349 518,350 518,351 517,352 517,353 516,354 516,356 515,357 515,358 514,359 514,360 513,361 513,362 512,363 512,365 511,366 511,367 510,368 510,369 509,370 509,371 508,372 508,374 507,375 507,376 506,377 506,378 505,379 505,380 504,381 504,383 503,384 503,385 502,386 502,387 501,388 501,389 500,390 500,392 499,393 499,394 498,395 498,396 497,397 497,399 496,400 496,401 495,402 495,403 494,404 494,405 493,406 502,406 503,405 503,404 504,403 504,402 505,401 505,400 506,399 506,398 507,397 507,395 508,394 508,393 509,392 509,391 510,390 510,389 511,388 511,386 512,385 512,384 513,383 513,382 514,381 514,380 515,379 515,377 516,376 516,375 517,374 517,373 518,372 518,371 519,370" stroke="#000" stroke-width="5" /><polygon fill="#000" fill-opacity="0.4" points="250,219 250,223 254,223 254,219" stroke="#000" stroke-width="5" /><polygon fill="#000" fill-opacity="0.4" points="198,219 198,223 201,223 202,222 202,219" stroke="#000" stroke-width="5" /><polygon fill="#000" fill-opacity="0.4" points="232,198 229,201 229,202 228,203 228,204 231,204 232,203 232,202 234,200 237,200 240,203 240,206 238,208 237,208 236,209 235,209 235,211 237,211 238,212 239,212 240,213 240,215 241,216 240,217 240,218 238,220 237,220 236,221 235,221 234,220 233,220 232,219 232,218 231,217 231,216 228,216 228,219 229,220 229,221 230,222 231,222 232,223 239,223 240,222 241,222 244,219 244,213 243,212 243,211 241,209 243,207 243,205 244,204 243,203 243,201 240,198" stroke="#000" stroke-width="5" /><polygon fill="#000" fill-opacity="0.4" points="180,198 179,199 178,199 178,200 177,201 177,202 176,203 176,205 179,205 180,204 180,203 183,200 185,200 188,203 188,208 185,211 184,211 181,214 180,214 178,216 178,217 177,218 177,219 176,220 176,223 192,223 192,220 182,220 181,219 181,218 184,215 185,215 187,213 188,213 191,210 191,209 192,208 192,202 188,198" stroke="#000" stroke-width="5" /><polygon fill="#000" fill-opacity="0.4" points="215,197 214,198 211,198 209,200 209,201 208,202 208,204 207,205 207,216 208,217 208,219 209,220 209,221 210,222 211,222 212,223 219,223 222,220 222,219 223,218 223,212 224,211 224,209 223,208 223,203 222,202 222,201 221,200 221,199 220,199 219,198 216,198" stroke="#000" stroke-width="5" /><polygon fill="#000" fill-opacity="0.4" points="214,200 216,200 217,201 218,201 219,202 219,204 220,205 220,215 219,216 219,218 216,221 215,221 214,220 213,220 212,219 212,218 211,217 211,203" stroke="#000" stroke-width="5" /><polygon fill="#000" fill-opacity="0.4" points="163,197 162,198 159,198 156,201 156,203 155,204 155,216 156,217 156,219 157,220 157,221 158,222 159,222 160,223 166,223 167,222 168,222 170,220 170,218 171,217 171,203 170,202 170,201 167,198 164,198" stroke="#000" stroke-width="5" /><polygon fill="#000" fill-opacity="0.4" points="162,200 164,200 167,203 167,205 168,206 168,214 167,215 167,218 165,220 164,220 163,221 162,220 161,220 159,218 159,213 158,212 158,209 159,208 159,203" stroke="#000" stroke-width="5" /><polygon fill="#000" fill-opacity="0.4" points="128,197 128,198 127,199 127,201 126,202 126,203 125,204 125,206 124,207 124,209 123,210 123,212 122,213 122,215 121,216 121,217 120,218 120,220 119,221 119,223 123,223 123,222 124,221 124,219 126,217 135,217 137,219 137,221 138,222 138,223 142,223 142,221 141,220 141,219 140,218 140,216 139,215 139,213 138,212 138,210 137,209 137,207 136,206 136,204 135,203 135,202 134,201 134,199 133,198 133,197" stroke="#000" stroke-width="5" /><polygon fill="#000" fill-opacity="0.4" points="129,203 130,202 132,204 132,206 133,207 133,209 134,210 134,213 133,214 127,214 126,213 127,212 127,209 128,208 128,206 129,205" stroke="#000" stroke-width="5" /><polygon fill="#000" fill-opacity="0.4" points="103,196 102,197 99,197 98,198 97,198 96,199 96,200 95,201 95,203 94,204 95,205 95,207 96,208 96,209 97,209 98,210 99,210 100,211 104,211 105,212 107,212 108,213 109,213 111,215 111,217 108,220 101,220 98,217 98,216 94,216 94,217 95,218 95,219 96,220 96,221 97,221 98,222 99,222 100,223 109,223 110,222 111,222 114,219 114,217 115,216 115,215 114,214 114,212 112,210 111,210 110,209 107,209 106,208 103,208 102,207 100,207 98,205 98,203 99,202 99,201 100,200 102,200 103,199 104,199 105,200 107,200 110,203 110,204 114,204 114,203 113,202 113,201 112,200 112,199 111,199 109,197 106,197 105,196" stroke="#000" stroke-width="5" /><polygon fill="#000" fill-opacity="0.4" points="283,180 283,188 282,189 274,189 274,194 282,194 283,195 283,203 287,203 288,202 288,195 289,194 296,194 297,193 297,189 289,189 288,188 288,180" stroke="#000" stroke-width="5" /><polygon fill="#000" fill-opacity="0.4" points="64,180 64,188 63,189 55,189 55,194 63,194 64,195 64,203 68,203 68,195 69,194 77,194 77,189 69,189 68,188 68,180" stroke="#000" stroke-width="5" /><polygon fill="#000" fill-opacity="0.4" points="999,172 999,217 1000,218 1000,221 1001,222 1001,224 1003,226 1003,227 1005,229 1006,229 1008,231 1009,231 1010,232 1013,232 1014,233 1023,233 1024,232 1027,232 1028,231 1029,231 1030,230 1031,230 1037,224 1038,225 1038,232 1052,232 1052,172 1038,172 1037,173 1037,211 1036,212 1036,214 1035,215 1035,216 1031,220 1029,220 1028,221 1020,221 1019,220 1018,220 1015,217 1015,215 1014,214 1014,173 1013,172" stroke="#000" stroke-width="5" /><polygon fill="#000" fill-opacity="0.4" points="1155,171 1154,172 1151,172 1150,173 1149,173 1148,174 1147,174 1146,175 1145,175 1138,182 1138,183 1137,184 1137,185 1136,186 1136,187 1135,188 1135,191 1134,192 1134,196 1133,197 1133,208 1134,209 1134,214 1135,215 1135,217 1136,218 1136,219 1137,220 1137,221 1139,223 1139,224 1142,227 1143,227 1145,229 1146,229 1147,230 1148,230 1149,231 1150,231 1151,232 1153,232 1154,233 1158,233 1159,234 1164,234 1165,233 1170,233 1171,232 1173,232 1174,231 1176,231 1178,229 1179,229 1185,223 1185,222 1187,220 1187,219 1188,218 1188,215 1173,215 1173,216 1168,221 1167,221 1166,222 1158,222 1157,221 1156,221 1155,220 1154,220 1150,216 1150,215 1149,214 1149,212 1148,211 1148,207 1149,206 1189,206 1189,194 1188,193 1188,190 1187,189 1187,187 1186,186 1186,185 1185,184 1185,183 1183,181 1183,180 1179,176 1178,176 1176,174 1175,174 1174,173 1172,173 1171,172 1169,172 1168,171" stroke="#000" stroke-width="5" /><polygon fill="#000" fill-opacity="0.4" points="1156,184 1157,183 1165,183 1166,184 1167,184 1168,185 1169,185 1172,188 1172,189 1173,190 1173,192 1174,193 1174,196 1173,197 1150,197 1148,195 1149,194 1149,191 1150,190 1150,189 1155,184" stroke="#000" stroke-width="5" /><polygon fill="#000" fill-opacity="0.4" points="907,171 906,172 904,172 903,173 901,173 899,175 898,175 893,180 893,181 892,182 892,183 891,184 891,186 890,187 890,194 891,195 891,197 892,198 892,199 895,202 896,202 898,204 900,204 901,205 902,205 903,206 905,206 906,207 909,207 910,208 913,208 914,209 917,209 918,210 921,210 922,211 923,211 924,212 925,212 927,214 927,219 925,221 924,221 923,222 921,222 920,223 913,223 912,222 909,222 908,221 907,221 904,218 904,216 903,215 903,214 888,214 888,216 889,217 889,220 890,221 890,222 891,223 891,224 897,230 898,230 899,231 901,231 902,232 904,232 905,233 910,233 911,234 920,234 921,233 926,233 927,232 929,232 930,231 932,231 934,229 935,229 939,225 939,224 940,223 940,222 941,221 941,220 942,219 942,210 941,209 941,207 939,205 939,204 937,202 936,202 934,200 933,200 932,199 931,199 930,198 928,198 927,197 924,197 923,196 920,196 919,195 916,195 915,194 912,194 911,193 909,193 908,192 907,192 905,190 905,185 907,183 908,183 909,182 920,182 921,183 922,183 925,186 925,187 926,188 926,190 940,190 940,185 939,184 939,183 938,182 938,181 937,180 937,179 933,175 932,175 931,174 930,174 929,173 928,173 927,172 924,172 923,171" stroke="#000" stroke-width="5" /><polygon fill="#000" fill-opacity="0.4" points="844,171 843,172 841,172 840,173 839,173 833,179 833,180 831,182 830,181 830,172 816,172 816,232 831,232 831,196 832,195 832,193 834,191 834,190 835,189 836,189 838,187 840,187 841,186 850,186 850,171" stroke="#000" stroke-width="5" /><polygon fill="#000" fill-opacity="0.4" points="770,171 769,172 765,172 764,173 763,173 762,174 761,174 760,175 759,175 754,180 754,181 753,182 753,183 752,184 752,187 751,188 751,191 765,191 765,190 766,189 766,187 769,184 770,184 771,183 775,183 776,182 777,183 782,183 783,184 784,184 786,186 786,192 784,194 783,194 782,195 780,195 779,196 774,196 773,197 767,197 766,198 763,198 762,199 760,199 759,200 758,200 757,201 756,201 752,205 752,206 751,207 751,208 750,209 750,211 749,212 749,220 750,221 750,223 751,224 751,225 752,226 752,227 755,230 756,230 758,232 760,232 761,233 766,233 767,234 768,234 769,233 774,233 775,232 776,232 777,231 778,231 779,230 780,230 782,228 783,228 786,225 787,226 787,228 788,229 788,231 789,232 804,232 804,230 802,228 802,227 801,226 801,185 800,184 800,181 798,179 798,178 796,176 795,176 794,175 793,175 792,174 791,174 790,173 788,173 787,172 783,172 782,171" stroke="#000" stroke-width="5" /><polygon fill="#000" fill-opacity="0.4" points="783,204 784,203 785,203 786,204 786,214 785,215 785,216 784,217 784,218 781,221 780,221 779,222 777,222 776,223 769,223 768,222 767,222 764,219 764,212 765,211 765,210 767,208 768,208 769,207 770,207 771,206 774,206 775,205 780,205 781,204" stroke="#000" stroke-width="5" /><polygon fill="#000" fill-opacity="0.4" points="528,153 528,154 527,155 527,156 525,158 525,159 524,160 524,161 522,163 522,164 520,166 520,167 519,168 519,169 517,171 517,172 516,173 516,174 514,176 514,177 513,178 513,179 511,181 511,182 510,183 510,184 508,186 508,187 507,188 507,189 505,191 505,192 504,193 504,194 502,196 502,197 500,199 500,200 499,201 499,214 530,214 531,215 531,231 545,231 545,215 546,214 554,214 554,203 546,203 545,202 545,153" stroke="#000" stroke-width="5" /><polygon fill="#000" fill-opacity="0.4" points="530,168 531,169 531,202 530,203 511,203 510,202 511,201 511,200 512,199 512,198 513,197 513,196 515,194 515,193 516,192 516,191 517,190 517,189 519,187 519,186 520,185 520,184 522,182 522,181 523,180 523,179 524,178 524,177 526,175 526,174 527,173 527,172 528,171 528,170" stroke="#000" stroke-width="5" /><polygon fill="#000" fill-opacity="0.4" points="457,152 456,153 453,153 452,154 451,154 450,155 449,155 448,156 447,156 443,160 443,161 442,162 442,163 441,164 441,165 440,166 440,167 439,168 439,171 438,172 438,179 452,179 452,173 453,172 453,170 458,165 459,165 460,164 467,164 468,165 469,165 470,166 471,166 473,168 473,169 474,170 474,171 475,172 475,181 474,182 474,183 473,184 473,185 471,187 471,188 469,190 468,190 463,195 462,195 459,198 458,198 456,200 455,200 452,203 451,203 444,210 444,211 442,213 442,214 441,215 441,216 440,217 440,218 439,219 439,221 438,222 438,224 437,225 437,231 490,231 490,219 457,219 456,218 456,217 463,210 464,210 466,208 467,208 470,205 471,205 473,203 474,203 477,200 478,200 486,192 486,191 487,190 487,189 488,188 488,187 489,186 489,184 490,183 490,170 489,169 489,167 488,166 488,165 487,164 487,163 480,156 479,156 478,155 477,155 476,154 475,154 474,153 471,153 470,152" stroke="#000" stroke-width="5" /><polygon fill="#000" fill-opacity="0.4" points="394,152 393,153 390,153 389,154 388,154 387,155 386,155 380,161 380,162 379,163 379,164 378,165 378,166 377,167 377,169 376,170 376,173 375,174 375,179 374,180 374,206 375,207 375,211 376,212 376,215 377,216 377,218 378,219 378,220 379,221 379,222 380,223 380,224 386,230 387,230 388,231 389,231 390,232 392,232 393,233 408,233 409,232 411,232 412,231 414,231 416,229 417,229 420,226 420,225 422,223 422,222 423,221 423,220 424,219 424,217 425,216 425,214 426,213 426,209 427,208 427,201 428,200 428,185 427,184 427,177 426,176 426,172 425,171 425,169 424,168 424,166 423,165 423,164 422,163 422,162 420,160 420,159 417,156 416,156 415,155 414,155 413,154 412,154 411,153 409,153 408,152" stroke="#000" stroke-width="5" /><polygon fill="#000" fill-opacity="0.4" points="400,164 401,163 402,164 405,164 410,169 410,170 411,171 411,174 412,175 412,182 413,183 413,202 412,203 412,210 411,211 411,214 410,215 410,216 409,217 409,218 407,220 406,220 405,221 404,221 403,222 399,222 398,221 396,221 392,217 392,216 391,215 391,213 390,212 390,208 389,207 389,177 390,176 390,173 391,172 391,170 392,169 392,168 395,165 396,165 397,164" stroke="#000" stroke-width="5" /><polygon fill="#000" fill-opacity="0.4" points="331,152 330,153 327,153 326,154 325,154 324,155 323,155 322,156 321,156 316,161 316,162 315,163 315,164 314,165 314,167 313,168 313,170 312,171 312,177 311,178 311,179 326,179 326,173 327,172 327,170 329,168 329,167 330,166 331,166 332,165 333,165 334,164 341,164 342,165 343,165 348,170 348,171 349,172 349,181 348,182 348,183 347,184 347,185 338,194 337,194 334,197 333,197 330,200 329,200 326,203 325,203 317,211 317,212 315,214 315,215 314,216 314,217 313,218 313,220 312,221 312,223 311,224 311,231 364,231 364,219 331,219 330,218 330,217 337,210 338,210 341,207 342,207 344,205 345,205 348,202 349,202 352,199 353,199 359,193 359,192 361,190 361,189 362,188 362,187 363,186 363,183 364,182 364,171 363,170 363,168 362,167 362,165 360,163 360,162 354,156 353,156 352,155 351,155 350,154 348,154 347,153 345,153 344,152" stroke="#000" stroke-width="5" /><polygon fill="#000" fill-opacity="0.4" points="1069,151 1069,232 1083,232 1083,195 1084,194 1084,192 1085,191 1085,189 1090,184 1091,184 1092,183 1100,183 1101,184 1102,184 1106,188 1106,190 1107,191 1107,232 1122,232 1122,186 1121,185 1121,183 1120,182 1120,180 1114,174 1113,174 1112,173 1111,173 1110,172 1108,172 1107,171 1097,171 1096,172 1093,172 1092,173 1091,173 1089,175 1088,175 1086,177 1086,178 1084,180 1083,179 1083,151" stroke="#000" stroke-width="5" /><polygon fill="#000" fill-opacity="0.4" points="673,151 673,232 688,232 688,205 697,196 700,199 700,200 702,202 702,203 704,205 704,206 707,209 707,210 709,212 709,213 712,216 712,217 714,219 714,220 716,222 716,223 719,226 719,227 721,229 721,230 723,232 743,232 743,231 741,229 741,228 738,225 738,224 735,221 735,220 732,217 732,216 730,214 730,213 727,210 727,209 724,206 724,205 721,202 721,201 719,199 719,198 716,195 716,194 713,191 713,190 711,188 711,187 709,185 709,184 728,165 728,164 741,151 721,151 709,163 709,164 694,179 694,180 690,184 689,184 688,183 688,151" stroke="#000" stroke-width="5" /><polygon fill="#000" fill-opacity="0.4" points="630,49 630,51 631,52 631,53 632,54 632,56 633,57 633,58 634,59 634,60 635,61 635,62 636,63 636,65 637,66 637,67 638,68 638,69 639,70 639,73 638,74 638,76 637,77 637,78 636,79 636,81 635,82 635,83 638,83 638,82 639,81 639,80 640,79 640,77 641,76 641,75 642,74 642,73 643,72 643,70 644,69 644,68 645,67 645,66 646,65 646,63 647,62 647,61 648,60 648,59 649,58 649,56 650,55 650,54 651,53 651,52 652,51 652,49 649,49 649,51 648,52 648,53 647,54 647,55 646,56 646,58 645,59 645,60 644,61 644,63 643,64 643,65 642,66 642,67 641,68 640,67 640,66 639,65 639,64 638,63 638,61 637,60 637,59 636,58 636,56 635,55 635,54 634,53 634,51 633,50 633,49" stroke="#000" stroke-width="5" /><polygon fill="#000" fill-opacity="0.4" points="607,49 606,50 605,50 602,53 602,55 604,55 607,52 608,52 609,51 611,51 612,52 613,52 616,55 616,57 614,59 612,59 611,60 604,60 603,61 602,61 601,62 601,63 600,64 600,67 601,68 601,69 603,71 604,71 605,72 611,72 612,71 613,71 615,69 617,71 622,71 622,69 620,69 619,68 619,55 618,54 618,53 617,52 617,51 616,50 615,50 614,49" stroke="#000" stroke-width="5" /><polygon fill="#000" fill-opacity="0.4" points="613,61 614,60 615,60 616,61 616,65 612,69 605,69 603,67 603,64 605,62 607,62 608,61" stroke="#000" stroke-width="5" /><polygon fill="#000" fill-opacity="0.4" points="536,48 535,49 534,49 533,50 532,50 530,52 530,53 531,53 533,55 535,53 536,53 537,52 542,52 545,55 545,57 544,58 534,58 533,59 532,59 531,60 530,60 530,61 529,62 529,67 530,68 530,69 532,71 534,71 535,72 539,72 540,71 542,71 544,69 545,70 545,71 550,71 550,55 549,54 549,52 546,49 545,49 544,48" stroke="#000" stroke-width="5" /><polygon fill="#000" fill-opacity="0.4" points="536,62 537,61 544,61 545,62 545,64 542,67 541,67 540,68 536,68 534,66 534,63 535,62" stroke="#000" stroke-width="5" /><polygon fill="#000" fill-opacity="0.4" points="491,48 490,49 489,49 487,51 486,51 485,52 488,55 489,55 492,52 498,52 500,54 500,55 501,56 501,57 500,58 489,58 488,59 487,59 485,61 485,62 484,63 484,66 485,67 485,68 488,71 489,71 490,72 495,72 496,71 497,71 499,69 500,69 501,70 501,71 505,71 505,53 504,52 504,51 502,49 501,49 500,48" stroke="#000" stroke-width="5" /><polygon fill="#000" fill-opacity="0.4" points="492,61 499,61 500,62 500,64 499,65 499,66 498,67 497,67 496,68 491,68 489,66 489,64" stroke="#000" stroke-width="5" /><polygon fill="#000" fill-opacity="0.4" points="412,48 412,71 417,71 417,55 420,52 425,52 427,54 427,55 428,56 428,71 432,71 432,52 431,51 431,50 430,49 429,49 428,48 421,48 420,49 419,49 418,50 416,48" stroke="#000" stroke-width="5" /><polygon fill="#000" fill-opacity="0.4" points="391,48 390,49 389,49 386,52 386,53 385,54 385,55 384,56 384,63 385,64 385,66 386,67 386,68 388,70 389,70 390,71 391,71 392,72 398,72 399,71 401,71 402,70 403,70 404,69 404,68 402,66 400,66 399,67 398,67 397,68 394,68 393,67 392,67 389,64 389,62 390,61 406,61 406,58 405,57 405,54 404,53 404,52 401,49 400,49 399,48" stroke="#000" stroke-width="5" /><polygon fill="#000" fill-opacity="0.4" points="393,52 394,51 396,51 397,52 398,52 401,55 401,57 400,58 390,58 389,57 389,55 392,52" stroke="#000" stroke-width="5" /><polygon fill="#000" fill-opacity="0.4" points="358,48 358,82 362,82 362,70 363,69 365,71 367,71 368,72 372,72 373,71 375,71 378,68 378,67 379,66 379,63 380,62 380,57 379,56 379,54 378,53 378,52 375,49 374,49 373,48 366,48 364,50 363,50 362,49 362,48" stroke="#000" stroke-width="5" /><polygon fill="#000" fill-opacity="0.4" points="366,52 371,52 374,55 374,56 375,57 375,63 374,64 374,65 371,68 367,68 366,67 365,67 363,65 363,64 362,63 362,56" stroke="#000" stroke-width="5" /><polygon fill="#000" fill-opacity="0.4" points="518,40 517,41 516,41 514,43 514,47 513,48 510,48 510,52 513,52 514,53 514,68 515,69 515,70 516,71 517,71 518,72 523,72 524,71 525,71 525,68 520,68 519,67 519,66 518,65 518,53 519,52 524,52 525,51 525,49 524,48 519,48 518,47" stroke="#000" stroke-width="5" /><polygon fill="#000" fill-opacity="0.4" points="569,38 569,71 583,71 584,70 585,70 589,66 589,65 590,64 590,62 591,61 591,48 590,47 590,45 589,44 589,43 586,40 585,40 584,39 583,39 582,38" stroke="#000" stroke-width="5" /><polygon fill="#000" fill-opacity="0.4" points="574,40 578,40 579,41 582,41 583,42 584,42 586,44 586,45 587,46 587,47 588,48 588,61 587,62 587,63 586,64 586,65 583,68 581,68 580,69 574,69 572,67 572,42" stroke="#000" stroke-width="5" /><polygon fill="#000" fill-opacity="0.4" points="453,38 453,71 469,71 470,70 472,70 473,69 474,69 477,66 477,65 478,64 478,63 479,62 479,60 480,59 480,51 479,50 479,47 478,46 478,45 474,41 473,41 472,40 471,40 470,39 468,39 467,38" stroke="#000" stroke-width="5" /><polygon fill="#000" fill-opacity="0.4" points="460,42 462,42 463,43 468,43 469,44 470,44 474,48 474,50 475,51 475,59 474,60 474,61 473,62 473,63 471,65 470,65 469,66 467,66 466,67 459,67 458,66 458,44" stroke="#000" stroke-width="5" /><polygon fill="#000" fill-opacity="0.4" points="333,37 332,38 329,38 328,39 327,39 325,41 324,41 323,42 323,43 321,45 321,46 320,47 320,50 319,51 319,58 320,59 320,62 321,63 321,64 322,65 322,66 326,70 327,70 328,71 330,71 331,72 339,72 340,71 342,71 343,70 344,70 348,66 348,65 349,64 349,63 350,62 350,60 351,59 351,51 350,50 350,47 349,46 349,45 347,43 347,42 346,41 345,41 343,39 342,39 341,38 338,38 337,37" stroke="#000" stroke-width="5" /><polygon fill="#000" fill-opacity="0.4" points="331,43 332,42 338,42 339,43 340,43 345,48 345,50 346,51 346,58 345,59 345,61 344,62 344,63 341,66 340,66 339,67 337,67 336,68 334,68 333,67 331,67 330,66 329,66 326,63 326,62 325,61 325,59 324,58 324,51 325,50 325,48 330,43" stroke="#000" stroke-width="5" /><polygon fill="#000" fill-opacity="0.4" points="725,0 724,1 724,3 723,4 723,5 722,6 722,7 721,8 721,10 720,11 720,12 719,13 719,14 718,15 718,16 717,17 717,19 716,20 716,21 715,22 715,23 714,24 714,25 713,26 713,28 712,29 712,30 711,31 711,32 710,33 710,34 709,35 709,37 708,38 708,39 707,40 707,41 706,42 706,44 705,45 705,46 704,47 704,48 703,49 703,50 702,51 702,53 701,54 701,55 700,56 700,57 699,58 699,59 698,60 698,62 697,63 697,64 696,65 696,66 695,67 695,68 694,69 694,71 693,72 693,73 692,74 692,75 691,76 691,77 690,78 690,80 689,81 689,82 688,83 688,84 687,85 687,87 686,88 686,89 685,90 685,91 684,92 684,93 683,94 683,96 682,97 682,98 681,99 681,100 680,101 680,102 679,103 679,105 678,106 678,107 677,108 677,109 676,110 676,111 675,112 675,114 674,115 674,116 672,118 0,118 0,134 623,134 624,135 624,136 623,137 623,139 622,140 622,141 621,142 621,143 620,144 620,145 619,146 619,148 618,149 618,150 617,151 617,152 616,153 616,154 615,155 615,157 614,158 614,159 613,160 613,161 612,162 612,163 611,164 611,166 610,167 610,168 609,169 609,170 608,171 608,173 607,174 607,175 606,176 606,177 605,178 605,179 604,180 604,182 603,183 603,184 602,185 602,186 601,187 601,188 600,189 600,191 599,192 599,193 598,194 598,195 597,196 597,197 596,198 596,200 595,201 595,202 594,203 594,204 593,205 593,207 592,208 592,209 591,210 591,211 590,212 590,213 589,214 589,216 588,217 588,218 587,219 587,220 586,221 586,222 585,223 585,225 584,226 584,227 583,228 583,229 582,230 582,231 581,232 581,234 580,235 580,236 579,237 579,238 578,239 578,240 577,241 577,243 576,244 576,245 575,246 575,247 574,248 574,250 571,253 0,253 0,288 187,288 188,287 192,287 193,286 202,286 203,287 208,287 209,288 806,288 807,289 807,291 806,292 806,293 805,294 805,295 804,296 804,297 803,298 803,300 802,301 802,302 801,303 801,304 800,305 800,306 799,307 799,309 798,310 798,311 797,312 797,313 796,314 796,315 795,316 795,318 794,319 794,320 793,321 793,322 792,323 792,325 791,326 791,327 790,328 790,329 789,330 789,331 788,332 788,334 787,335 787,336 786,337 786,338 785,339 785,340 784,341 784,343 783,344 783,345 782,346 782,347 781,348 781,349 780,350 780,352 779,353 779,354 778,355 778,356 777,357 777,359 776,360 776,361 775,362 775,363 774,364 774,365 773,366 773,368 772,369 772,370 771,371 771,372 770,373 770,374 769,375 769,377 768,378 768,379 767,380 767,381 766,382 766,383 765,384 765,386 764,387 764,388 763,389 763,390 762,391 762,393 761,394 761,395 760,396 760,397 759,398 759,399 758,400 758,402 757,403 757,404 756,405 756,406 755,407 755,408 754,409 754,411 753,412 753,413 752,414 752,415 751,416 751,417 750,418 750,420 749,421 749,422 748,423 748,424 747,425 747,427 746,428 746,429 745,430 745,431 744,432 744,433 743,434 743,436 742,437 742,438 741,439 741,440 740,441 740,442 739,443 739,445 738,446 738,447 737,448 737,449 736,450 736,451 735,452 735,454 734,455 734,456 733,457 733,458 732,459 732,461 731,462 731,463 730,464 730,465 729,466 729,467 728,468 728,470 727,471 727,472 726,473 726,474 725,475 725,476 724,477 724,479 723,480 723,481 722,482 722,483 721,484 721,485 720,486 720,488 816,488 817,487 817,485 818,484 818,483 819,482 819,481 820,480 820,479 821,478 821,476 822,475 822,474 823,473 742,473 741,472 741,471 742,470 742,468 743,467 743,466 744,465 744,464 745,463 745,462 746,461 746,459 747,458 747,457 748,456 748,455 749,454 749,453 750,452 750,450 751,449 751,448 752,447 752,446 753,445 753,444 754,443 754,441 755,440 755,439 756,438 756,437 757,436 757,434 758,433 758,432 759,431 759,430 760,429 760,427 761,426 761,425 762,424 762,423 763,422 763,420 764,419 764,418 765,417 765,416 766,415 766,414 767,413 767,411 768,410 768,409 769,408 769,407 770,406 770,405 771,404 771,402 772,401 772,400 773,399 773,398 774,397 860,397 861,398 861,472 860,473 832,473 832,474 831,475 831,476 830,477 830,478 829,479 829,481 828,482 828,483 827,484 827,485 826,486 826,488 860,488 861,489 861,565 875,565 875,489 876,488 1199,488 1199,473 971,473 970,472 970,398 969,397 969,290 971,288 1199,288 1199,253 971,253 969,251 969,232 970,231 970,196 971,195 971,193 972,192 972,191 975,188 976,188 977,187 979,187 980,186 989,186 989,171 983,171 982,172 980,172 979,173 978,173 976,175 975,175 975,176 972,179 972,180 970,182 969,181 969,173 968,172 955,172 955,252 954,253 877,253 875,251 875,151 861,151 861,252 860,253 613,253 612,252 612,250 613,249 613,248 614,247 614,246 615,245 615,244 616,243 616,241 617,240 617,239 618,238 618,237 619,236 619,235 620,234 620,233 621,232 621,231 622,230 622,228 623,227 623,226 624,225 624,224 625,223 625,222 626,221 626,220 627,219 627,218 628,217 628,215 629,214 629,213 630,212 630,211 631,210 631,209 632,208 632,207 633,206 633,205 634,204 634,202 635,201 635,200 636,199 636,198 637,197 637,196 638,195 638,194 639,193 639,192 640,191 640,190 641,189 641,187 642,186 642,185 643,184 643,183 644,182 644,181 645,180 645,179 646,178 646,177 647,176 647,174 648,173 648,172 649,171 649,170 650,169 650,168 651,167 651,166 652,165 652,164 653,163 653,161 654,160 654,159 655,158 655,157 656,156 656,155 657,154 657,153 658,152 658,151 659,150 659,148 660,147 660,146 661,145 661,144 662,143 662,142 663,141 663,140 664,139 664,138 665,137 665,136 667,134 1199,134 1199,0 857,0 857,1 856,2 856,4 855,5 855,6 854,7 854,8 853,9 853,10 852,11 852,12 851,13 851,14 850,15 850,17 849,18 849,19 848,20 848,21 847,22 847,23 846,24 846,25 845,26 845,27 844,28 844,30 843,31 843,32 842,33 842,34 841,35 841,36 840,37 840,38 839,39 839,40 838,41 838,43 837,44 837,45 836,46 836,47 835,48 835,49 834,50 834,51 833,52 833,53 832,54 832,56 831,57 831,58 830,59 830,60 829,61 829,62 828,63 828,64 827,65 827,66 826,67 826,68 825,69 825,71 824,72 824,73 823,74 823,75 822,76 822,77 821,78 821,79 820,80 820,81 819,82 819,84 818,85 818,86 817,87 817,88 816,89 816,90 815,91 815,92 814,93 814,94 813,95 813,97 812,98 812,99 811,100 811,101 810,102 810,103 809,104 809,105 808,106 808,107 807,108 807,110 806,111 806,112 805,113 805,114 804,115 804,116 802,118 765,118 764,117 764,114 765,113 765,112 766,111 766,110 767,109 767,107 768,106 768,105 769,104 769,103 770,102 770,100 771,99 771,98 772,97 772,96 773,95 773,93 774,92 774,91 775,90 775,89 776,88 776,86 777,85 777,84 778,83 778,82 779,81 779,79 780,78 780,77 781,76 781,75 782,74 782,73 783,72 783,70 784,69 784,68 785,67 785,66 786,65 786,63 787,62 787,61 788,60 788,59 789,58 789,56 790,55 790,54 791,53 791,52 792,51 792,49 793,48 793,47 794,46 794,45 795,44 795,42 796,41 796,40 797,39 797,38 798,37 798,36 799,35 799,33 800,32 800,31 801,30 801,29 802,28 802,26 803,25 803,24 804,23 804,22 805,21 805,19 806,18 806,17 807,16 807,15 808,14 808,12 809,11 809,10 810,9 810,8 811,7 811,5 812,4 812,3 813,2 813,1 814,0 801,0 801,1 800,2 800,3 799,4 799,5 798,6 798,7 797,8 797,10 796,11 796,12 795,13 795,14 794,15 794,16 793,17 793,18 792,19 792,20 791,21 791,23 790,24 790,25 789,26 789,27 788,28 788,29 787,30 787,31 786,32 786,33 785,34 785,35 784,36 784,38 783,39 783,40 782,41 782,42 781,43 781,44 780,45 780,46 779,47 779,48 778,49 778,51 777,52 777,53 776,54 776,55 775,56 775,57 774,58 774,59 773,60 773,61 772,62 772,64 771,65 771,66 770,67 770,68 769,69 769,70 768,71 768,72 767,73 767,74 766,75 766,77 765,78 765,79 764,80 764,81 763,82 763,83 762,84 762,85 761,86 761,87 760,88 760,90 759,91 759,92 758,93 758,94 757,95 757,96 756,97 756,98 755,99 755,100 754,101 754,102 753,103 753,105 752,106 752,107 751,108 751,109 750,110 750,111 749,112 749,113 748,114 748,115 747,116 747,117 746,118 708,118 707,117 707,116 708,115 708,114 709,113 709,111 710,110 710,109 711,108 711,107 712,106 712,104 713,103 713,102 714,101 714,100 715,99 715,97 716,96 716,95 717,94 717,93 718,92 718,90 719,89 719,88 720,87 720,86 721,85 721,84 722,83 722,81 723,80 723,79 724,78 724,77 725,76 725,74 726,73 726,72 727,71 727,70 728,69 728,67 729,66 729,65 730,64 730,63 731,62 731,60 732,59 732,58 733,57 733,56 734,55 734,53 735,52 735,51 736,50 736,49 737,48 737,47 738,46 738,44 739,43 739,42 740,41 740,40 741,39 741,37 742,36 742,35 743,34 743,33 744,32 744,30 745,29 745,28 746,27 746,26 747,25 747,23 748,22 748,21 749,20 749,19 750,18 750,16 751,15 751,14 752,13 752,12 753,11 753,10 754,9 754,7 755,6 755,5 756,4 756,3 757,2 757,0" stroke="#000" stroke-width="5" /><polygon fill="#000" fill-opacity="0.4" points="875,289 876,288 954,288 955,289 955,472 954,473 877,473 876,472 876,432 875,431 875,429 876,428 875,427 875,424 876,423 875,422 875,419 876,418 875,417 875,414 876,413 875,412 875,409 876,408 875,407 875,404 876,403 875,402 875,400 876,399 875,398" stroke="#000" stroke-width="5" /><polygon fill="#000" fill-opacity="0.4" points="821,289 822,288 860,288 861,289 861,382 860,383 781,383 780,382 781,381 781,380 782,379 782,377 783,376 783,375 784,374 784,373 785,372 785,371 786,370 786,368 787,367 787,366 788,365 788,364 789,363 789,361 790,360 790,359 791,358 791,357 792,356 792,355 793,354 793,352 794,351 794,350 795,349 795,348 796,347 796,346 797,345 797,343 798,342 798,341 799,340 799,339 800,338 800,337 801,336 801,334 802,333 802,332 803,331 803,330 804,329 804,328 805,327 805,325 806,324 806,323 807,322 807,321 808,320 808,318 809,317 809,316 810,315 810,314 811,313 811,312 812,311 812,309 813,308 813,307 814,306 814,305 815,304 815,303 816,302 816,300 817,299 817,298 818,297 818,296 819,295 819,294 820,293 820,291 821,290" stroke="#000" stroke-width="5" /></svg>