<?xml version="1.0" encoding="utf-8" ?>
<svg baseProfile="tiny" height="675" version="1.2" width="1200" xmlns="http://www.w3.org/2000/svg" xmlns:ev="http://www.w3.org/2001/xml-events" xmlns:xlink="http://www.w3.org/1999/xlink"><defs /><rect fill="#fff" height="675" width="1200" x="0" y="0" /><polygon fill="#000" fill-opacity="0.4" points="860,573 860,674 876,674 876,573" stroke="#000" stroke-width="5" /><polygon fill="#000" fill-opacity="0.4" points="1120,524 1120,526 1119,527 1119,529 1118,530 1118,531 1117,532 1117,534 1116,535 1116,537 1115,538 1115,540 1114,541 1114,543 1113,544 1113,546 1112,547 1112,548 1111,549 1111,550 1117,550 1117,548 1118,547 1118,546 1119,545 1128,545 1129,546 1129,547 1130,548 1130,550 1136,550 1136,549 1135,548 1135,546 1134,545 1134,543 1133,542 1133,541 1132,540 1132,538 1131,537 1131,535 1130,534 1130,532 1129,531 1129,529 1128,528 1128,527 1127,526 1127,524" stroke="#000" stroke-width="5" /><polygon fill="#000" fill-opacity="0.4" points="1122,533 1123,532 1124,532 1125,533 1125,535 1126,536 1126,538 1127,539 1126,540 1121,540 1120,539 1121,538 1121,536 1122,535" stroke="#000" stroke-width="5" /><polygon fill="#000" fill-opacity="0.4" points="1090,524 1090,528 1098,528 1099,529 1099,550 1104,550 1104,529 1105,528 1112,528 1112,524" stroke="#000" stroke-width="5" /><polygon fill="#000" fill-opacity="0.4" points="1076,524 1075,525 1075,527 1074,528 1074,530 1073,531 1073,533 1072,534 1072,536 1071,537 1071,538 1070,539 1070,541 1069,542 1069,544 1068,545 1068,547 1067,548 1067,550 1072,550 1072,549 1073,548 1073,546 1074,545 1083,545 1085,547 1085,549 1086,550 1091,550 1091,548 1090,547 1090,545 1089,544 1089,542 1088,541 1088,539 1087,538 1087,537 1086,536 1086,534 1085,533 1085,531 1084,530 1084,528 1083,527 1083,525 1082,524" stroke="#000" stroke-width="5" /><polygon fill="#000" fill-opacity="0.4" points="1078,531 1079,530 1080,531 1080,533 1081,534 1081,537 1082,538 1082,539 1081,540 1077,540 1076,539 1076,537 1077,536 1077,534 1078,533" stroke="#000" stroke-width="5" /><polygon fill="#000" fill-opacity="0.4" points="1041,524 1041,550 1056,550 1057,549 1058,549 1059,548 1060,548 1060,547 1062,545 1062,544 1063,543 1063,540 1064,539 1064,534 1063,533 1063,530 1062,529 1062,528 1059,525 1058,525 1057,524" stroke="#000" stroke-width="5" /><polygon fill="#000" fill-opacity="0.4" points="1046,529 1047,528 1054,528 1055,529 1056,529 1057,530 1057,531 1058,532 1058,541 1057,542 1057,543 1054,546 1047,546 1046,545" stroke="#000" stroke-width="5" /><polygon fill="#000" fill-opacity="0.4" points="1004,524 1004,550 1009,550 1009,535 1010,534 1012,536 1012,537 1013,538 1013,539 1014,540 1014,541 1016,543 1016,544 1017,545 1017,546 1018,547 1018,548 1020,550 1025,550 1025,524 1020,524 1020,539 1019,540 1018,539 1018,538 1016,536 1016,535 1015,534 1015,533 1014,532 1014,531 1012,529 1012,528 1011,527 1011,526 1010,525 1010,524" stroke="#000" stroke-width="5" /><polygon fill="#000" fill-opacity="0.4" points="984,524 984,525 983,526 983,528 982,529 982,531 981,532 981,534 980,535 980,537 979,538 979,539 978,540 978,542 977,543 977,545 976,546 976,548 975,549 975,550 980,550 981,549 981,547 983,545 992,545 993,546 993,548 994,549 994,550 1000,550 999,549 999,547 998,546 998,544 997,543 997,541 996,540 996,538 995,537 995,536 994,535 994,533 993,532 993,530 992,529 992,527 991,526 991,524" stroke="#000" stroke-width="5" /><polygon fill="#000" fill-opacity="0.4" points="986,532 987,531 989,533 989,535 990,536 990,539 989,540 985,540 984,539 984,538 985,537 985,535 986,534" stroke="#000" stroke-width="5" /><polygon fill="#000" fill-opacity="0.4" points="950,524 950,550 966,550 967,549 968,549 971,546 971,543 972,542 971,541 971,539 968,536 970,534 970,533 971,532 971,529 970,528 970,527 967,524" stroke="#000" stroke-width="5" /><polygon fill="#000" fill-opacity="0.4" points="955,539 956,538 963,538 964,539 965,539 966,540 966,544 964,546 956,546 955,545" stroke="#000" stroke-width="5" /><polygon fill="#000" fill-opacity="0.4" points="955,529 956,528 964,528 965,529 965,530 966,531 966,532 964,534 956,534 955,533" stroke="#000" stroke-width="5" /><polygon fill="#000" fill-opacity="0.4" points="923,524 923,550 928,550 928,541 929,540 936,540 938,542 938,548 939,549 939,550 945,550 944,549 944,543 943,542 943,540 941,538 943,536 943,535 944,534 944,528 942,526 942,525 941,525 940,524" stroke="#000" stroke-width="5" /><polygon fill="#000" fill-opacity="0.4" points="928,529 929,528 937,528 939,530 939,533 937,535 936,535 935,536 929,536 928,535" stroke="#000" stroke-width="5" /><polygon fill="#000" fill-opacity="0.4" points="895,524 895,542 896,543 896,546 900,550 902,550 903,551 910,551 911,550 912,550 913,549 914,549 915,548 915,547 916,546 916,544 917,543 917,524 911,524 911,544 909,546 908,546 907,547 905,547 904,546 903,546 901,544 901,524" stroke="#000" stroke-width="5" /><polygon fill="#000" fill-opacity="0.4" points="557,473 557,488 573,488 573,474 572,473" stroke="#000" stroke-width="5" /><polygon fill="#000" fill-opacity="0.4" points="557,408 557,435 558,436 558,444 559,445 559,452 560,453 560,460 561,461 561,465 569,465 569,458 570,457 570,449 571,448 571,441 572,440 572,432 573,431 573,408" stroke="#000" stroke-width="5" /><polygon fill="#000" fill-opacity="0.4" points="249,218 249,223 254,223 254,218" stroke="#000" stroke-width="5" /><polygon fill="#000" fill-opacity="0.4" points="197,218 197,223 202,223 202,218" stroke="#000" stroke-width="5" /><polygon fill="#000" fill-opacity="0.4" points="283,210 283,232 282,233 274,233 274,237 288,237 288,210" stroke="#000" stroke-width="5" /><polygon fill="#000" fill-opacity="0.4" points="64,210 64,237 77,237 77,233 70,233 68,231 68,210" stroke="#000" stroke-width="5" /><polygon fill="#000" fill-opacity="0.4" points="233,197 232,198 231,198 228,201 228,205 232,205 232,203 234,201 237,201 239,203 239,206 237,208 234,208 234,211 235,211 236,212 238,212 240,214 240,217 237,220 234,220 232,218 232,216 231,215 228,215 227,216 227,218 228,219 228,220 231,223 233,223 234,224 238,224 239,223 241,223 244,220 244,219 245,218 245,213 242,210 242,209 243,208 243,207 244,206 244,201 241,198 240,198 239,197" stroke="#000" stroke-width="5" /><polygon fill="#000" fill-opacity="0.4" points="212,197 211,198 210,198 208,200 208,202 207,203 207,206 206,207 206,213 207,214 207,218 208,219 208,220 209,221 209,222 210,222 211,223 212,223 213,224 217,224 218,223 220,223 222,221 222,220 223,219 223,217 224,216 224,204 223,203 223,201 220,198 219,198 218,197" stroke="#000" stroke-width="5" /><polygon fill="#000" fill-opacity="0.4" points="214,201 217,201 218,202 218,203 219,204 219,217 216,220 214,220 212,218 212,216 211,215 211,206 212,205 212,203" stroke="#000" stroke-width="5" /><polygon fill="#000" fill-opacity="0.4" points="181,197 180,198 179,198 176,201 176,204 175,205 176,206 180,206 180,204 181,203 181,202 182,201 186,201 187,202 187,203 188,204 188,206 187,207 187,208 184,211 183,211 179,215 178,215 178,216 176,218 176,220 175,221 175,223 193,223 193,219 183,219 182,218 185,215 186,215 189,212 190,212 191,211 191,210 192,209 192,208 193,207 193,204 192,203 192,201 189,198 188,198 187,197" stroke="#000" stroke-width="5" /><polygon fill="#000" fill-opacity="0.4" points="160,197 159,198 158,198 156,200 156,201 155,202 155,205 154,206 154,215 155,216 155,218 156,219 156,220 157,221 157,222 158,222 159,223 160,223 161,224 165,224 166,223 168,223 170,221 170,220 171,219 171,217 172,216 172,205 171,204 171,202 170,201 170,200 168,198 167,198 166,197" stroke="#000" stroke-width="5" /><polygon fill="#000" fill-opacity="0.4" points="162,201 165,201 166,202 166,203 167,204 167,216 166,217 166,218 164,220 162,220 160,218 160,216 159,215 159,205 160,204 160,203" stroke="#000" stroke-width="5" /><polygon fill="#000" fill-opacity="0.4" points="127,197 127,199 126,200 126,202 125,203 125,204 124,205 124,207 123,208 123,210 122,211 122,213 121,214 121,216 120,217 120,218 119,219 119,221 118,222 118,223 123,223 124,222 124,220 126,218 135,218 136,219 136,220 137,221 137,223 143,223 143,222 142,221 142,220 141,219 141,217 140,216 140,214 139,213 139,211 138,210 138,208 137,207 137,205 136,204 136,203 135,202 135,200 134,199 134,197" stroke="#000" stroke-width="5" /><polygon fill="#000" fill-opacity="0.4" points="129,205 130,204 132,206 132,208 133,209 133,211 134,212 133,213 128,213 127,212 127,211 128,210 128,208 129,207" stroke="#000" stroke-width="5" /><polygon fill="#000" fill-opacity="0.4" points="100,196 99,197 98,197 97,198 96,198 96,199 94,201 94,207 97,210 98,210 99,211 101,211 102,212 105,212 106,213 108,213 110,215 110,217 108,219 107,219 106,220 103,220 102,219 101,219 99,217 99,216 98,215 94,215 94,219 98,223 101,223 102,224 107,224 108,223 110,223 111,222 112,222 114,220 114,219 115,218 115,213 114,212 114,211 113,210 112,210 111,209 110,209 109,208 106,208 105,207 102,207 101,206 100,206 99,205 99,202 100,201 101,201 102,200 106,200 109,203 109,204 114,204 114,201 110,197 109,197 108,196" stroke="#000" stroke-width="5" /><polygon fill="#000" fill-opacity="0.4" points="283,180 283,188 282,189 274,189 274,194 282,194 283,195 283,203 288,203 288,195 289,194 297,194 297,189 289,189 288,188 288,180" stroke="#000" stroke-width="5" /><polygon fill="#000" fill-opacity="0.4" points="63,180 63,188 62,189 54,189 54,194 62,194 63,195 63,203 69,203 69,195 70,194 78,194 78,189 70,189 69,188 69,180" stroke="#000" stroke-width="5" /><polygon fill="#000" fill-opacity="0.4" points="250,178 250,183 255,183 255,179 254,178" stroke="#000" stroke-width="5" /><polygon fill="#000" fill-opacity="0.4" points="198,178 198,183 203,183 203,179 202,178" stroke="#000" stroke-width="5" /><polygon fill="#000" fill-opacity="0.4" points="998,172 998,212 999,213 999,219 1000,220 1000,222 1001,223 1001,225 1007,231 1008,231 1009,232 1011,232 1012,233 1025,233 1026,232 1028,232 1029,231 1030,231 1032,229 1033,229 1037,225 1038,226 1038,232 1052,232 1052,172 1037,172 1037,209 1036,210 1036,213 1035,214 1035,215 1030,220 1027,220 1026,221 1022,221 1021,220 1019,220 1015,216 1015,213 1014,212 1014,172" stroke="#000" stroke-width="5" /><polygon fill="#000" fill-opacity="0.4" points="843,171 842,172 840,172 839,173 838,173 834,177 834,178 831,181 830,180 830,172 816,172 816,232 831,232 831,199 832,198 832,194 833,193 833,192 837,188 838,188 839,187 842,187 843,186 850,186 850,171" stroke="#000" stroke-width="5" /><polygon fill="#000" fill-opacity="0.4" points="767,171 766,172 764,172 763,173 762,173 761,174 760,174 759,175 758,175 754,179 754,180 753,181 753,182 752,183 752,185 751,186 751,191 766,191 766,188 770,184 771,184 772,183 781,183 782,184 783,184 786,187 786,191 783,194 782,194 781,195 778,195 777,196 770,196 769,197 765,197 764,198 761,198 760,199 759,199 758,200 757,200 756,201 755,201 752,204 752,205 751,206 751,207 750,208 750,209 749,210 749,222 750,223 750,225 752,227 752,228 754,230 755,230 757,232 759,232 760,233 762,233 763,234 771,234 772,233 775,233 776,232 777,232 778,231 779,231 780,230 781,230 785,226 786,226 787,227 787,230 788,231 788,232 805,232 805,230 802,227 802,220 801,219 801,183 800,182 800,180 795,175 794,175 793,174 792,174 791,173 790,173 789,172 786,172 785,171" stroke="#000" stroke-width="5" /><polygon fill="#000" fill-opacity="0.4" points="784,204 785,203 786,204 786,213 785,214 785,216 780,221 779,221 778,222 776,222 775,223 770,223 769,222 768,222 765,219 765,218 764,217 764,213 765,212 765,211 768,208 769,208 770,207 772,207 773,206 777,206 778,205 781,205 782,204" stroke="#000" stroke-width="5" /><polygon fill="#000" fill-opacity="0.4" points="1159,170 1158,171 1153,171 1152,172 1150,172 1149,173 1148,173 1147,174 1146,174 1144,176 1143,176 1139,180 1139,181 1137,183 1137,184 1136,185 1136,186 1135,187 1135,189 1134,190 1134,193 1133,194 1133,211 1134,212 1134,215 1135,216 1135,218 1136,219 1136,220 1137,221 1137,222 1144,229 1145,229 1146,230 1147,230 1148,231 1149,231 1150,232 1151,232 1152,233 1155,233 1156,234 1168,234 1169,233 1172,233 1173,232 1174,232 1175,231 1176,231 1177,230 1178,230 1179,229 1180,229 1185,224 1185,223 1187,221 1187,220 1188,219 1188,217 1189,216 1189,215 1173,215 1172,216 1172,217 1169,220 1168,220 1167,221 1164,221 1163,222 1161,222 1160,221 1157,221 1156,220 1155,220 1150,215 1150,214 1149,213 1149,209 1148,208 1148,207 1149,206 1190,206 1190,199 1189,198 1189,192 1188,191 1188,188 1187,187 1187,186 1186,185 1186,184 1185,183 1185,182 1182,179 1182,178 1181,177 1180,177 1177,174 1176,174 1175,173 1174,173 1173,172 1170,172 1169,171 1164,171 1163,170" stroke="#000" stroke-width="5" /><polygon fill="#000" fill-opacity="0.4" points="1157,184 1158,183 1164,183 1165,184 1167,184 1172,189 1172,190 1173,191 1173,194 1174,195 1173,196 1150,196 1149,195 1149,193 1150,192 1150,190 1152,188 1152,187 1154,185 1155,185 1156,184" stroke="#000" stroke-width="5" /><polygon fill="#000" fill-opacity="0.4" points="911,170 910,171 905,171 904,172 902,172 901,173 900,173 898,175 897,175 893,179 893,180 892,181 892,182 891,183 891,184 890,185 890,196 891,197 891,198 893,200 893,201 894,202 895,202 897,204 898,204 899,205 901,205 902,206 904,206 905,207 907,207 908,208 912,208 913,209 915,209 916,210 919,210 920,211 922,211 923,212 924,212 927,215 927,218 924,221 923,221 922,222 911,222 910,221 908,221 904,217 904,214 903,213 888,213 888,218 889,219 889,221 890,222 890,223 892,225 892,226 895,229 896,229 898,231 899,231 900,232 902,232 903,233 907,233 908,234 923,234 924,233 928,233 929,232 931,232 932,231 933,231 935,229 936,229 939,226 939,225 941,223 941,221 942,220 942,217 943,216 943,212 942,211 942,208 941,207 941,206 935,200 934,200 933,199 932,199 931,198 929,198 928,197 926,197 925,196 922,196 921,195 918,195 917,194 914,194 913,193 910,193 909,192 908,192 905,189 905,186 908,183 909,183 910,182 919,182 920,183 921,183 925,187 925,190 941,190 941,188 940,187 940,184 939,183 939,181 937,179 937,178 934,175 933,175 932,174 931,174 930,173 929,173 928,172 926,172 925,171 919,171 918,170" stroke="#000" stroke-width="5" /><polygon fill="#000" fill-opacity="0.4" points="234,157 233,158 232,158 229,161 229,162 228,163 228,165 232,165 232,164 233,163 233,162 234,161 238,161 240,163 240,166 238,168 235,168 235,171 236,171 237,172 239,172 240,173 240,174 241,175 241,176 240,177 240,178 238,180 234,180 233,179 233,178 232,177 232,176 228,176 228,179 229,180 229,181 230,182 231,182 232,183 234,183 235,184 238,184 239,183 241,183 245,179 245,173 244,172 244,171 242,169 244,167 244,161 241,158 240,158 239,157" stroke="#000" stroke-width="5" /><polygon fill="#000" fill-opacity="0.4" points="213,157 212,158 211,158 209,160 209,161 208,162 208,164 207,165 207,176 208,177 208,179 209,180 209,181 211,183 213,183 214,184 217,184 218,183 220,183 223,180 223,179 224,178 224,172 225,171 225,170 224,169 224,163 223,162 223,161 222,160 222,159 221,159 220,158 219,158 218,157" stroke="#000" stroke-width="5" /><polygon fill="#000" fill-opacity="0.4" points="214,161 218,161 219,162 219,164 220,165 220,176 219,177 219,178 217,180 214,180 213,179 213,178 212,177 212,163" stroke="#000" stroke-width="5" /><polygon fill="#000" fill-opacity="0.4" points="185,157 184,158 184,159 182,161 181,161 180,162 177,162 177,165 182,165 183,166 183,183 188,183 188,157" stroke="#000" stroke-width="5" /><polygon fill="#000" fill-opacity="0.4" points="161,157 160,158 159,158 157,160 157,161 156,162 156,164 155,165 155,176 156,177 156,179 157,180 157,181 159,183 161,183 162,184 165,184 166,183 168,183 171,180 171,178 172,177 172,163 171,162 171,161 168,158 167,158 166,157" stroke="#000" stroke-width="5" /><polygon fill="#000" fill-opacity="0.4" points="162,161 165,161 167,163 167,165 168,166 168,175 167,176 167,178 165,180 162,180 160,178 160,174 159,173 159,168 160,167 160,163" stroke="#000" stroke-width="5" /><polygon fill="#000" fill-opacity="0.4" points="119,157 119,183 124,183 124,173 125,172 131,172 132,173 133,173 135,175 135,183 141,183 140,182 140,175 139,174 139,172 138,172 137,171 139,169 139,168 140,167 140,161 139,160 139,159 138,158 137,158 136,157" stroke="#000" stroke-width="5" /><polygon fill="#000" fill-opacity="0.4" points="124,162 125,161 134,161 135,162 135,163 136,164 136,166 134,168 133,168 132,169 125,169 124,168" stroke="#000" stroke-width="5" /><polygon fill="#000" fill-opacity="0.4" points="96,157 96,183 101,183 101,173 102,172 113,172 113,168 102,168 101,167 101,162 102,161 114,161 115,160 115,157" stroke="#000" stroke-width="5" /><polygon fill="#000" fill-opacity="0.4" points="529,152 527,154 527,155 525,157 525,158 524,159 524,160 522,162 522,163 521,164 521,165 519,167 519,168 518,169 518,170 516,172 516,173 515,174 515,175 513,177 513,178 511,180 511,181 510,182 510,183 508,185 508,186 507,187 507,188 505,190 505,191 504,192 504,193 502,195 502,196 501,197 501,198 499,200 499,214 529,214 531,216 531,232 546,232 546,215 547,214 555,214 555,203 547,203 546,202 546,153 545,152" stroke="#000" stroke-width="5" /><polygon fill="#000" fill-opacity="0.4" points="530,169 531,170 531,201 529,203 512,203 511,202 511,201 512,200 512,199 513,198 513,197 515,195 515,194 516,193 516,192 517,191 517,190 519,188 519,187 520,186 520,185 521,184 521,183 523,181 523,180 524,179 524,178 526,176 526,175 527,174 527,173 528,172 528,171" stroke="#000" stroke-width="5" /><polygon fill="#000" fill-opacity="0.4" points="1068,151 1068,232 1084,232 1084,193 1085,192 1085,190 1087,188 1087,187 1088,186 1089,186 1091,184 1093,184 1094,183 1099,183 1100,184 1101,184 1102,185 1103,185 1105,187 1105,188 1106,189 1106,192 1107,193 1107,232 1122,232 1122,184 1121,183 1121,181 1119,179 1119,178 1115,174 1114,174 1113,173 1112,173 1111,172 1109,172 1108,171 1103,171 1102,170 1101,170 1100,171 1095,171 1094,172 1092,172 1091,173 1090,173 1085,178 1084,177 1084,151" stroke="#000" stroke-width="5" /><polygon fill="#000" fill-opacity="0.4" points="672,151 672,232 689,232 689,205 697,197 700,200 700,201 703,204 703,205 705,207 705,208 707,210 707,211 710,214 710,215 712,217 712,218 715,221 715,222 717,224 717,225 719,227 719,228 722,231 722,232 744,232 743,231 743,230 740,227 740,226 737,223 737,222 734,219 734,218 732,216 732,215 729,212 729,211 726,208 726,207 723,204 723,203 721,201 721,200 718,197 718,196 715,193 715,192 712,189 712,188 710,186 710,185 709,184 742,151 720,151 715,156 715,157 700,172 700,173 690,183 689,182 689,151" stroke="#000" stroke-width="5" /><polygon fill="#000" fill-opacity="0.4" points="461,151 460,152 455,152 454,153 452,153 451,154 450,154 449,155 448,155 442,161 442,162 441,163 441,164 440,165 440,166 439,167 439,169 438,170 438,175 437,176 437,180 452,180 452,176 453,175 453,172 454,171 454,170 455,169 455,168 457,166 458,166 459,165 462,165 463,164 465,164 466,165 468,165 469,166 470,166 473,169 473,170 474,171 474,172 475,173 475,180 474,181 474,183 472,185 472,186 466,192 465,192 462,195 461,195 458,198 457,198 454,201 453,201 448,206 447,206 446,207 446,208 442,212 442,213 441,214 441,215 440,216 440,217 439,218 439,219 438,220 438,223 437,224 437,228 436,229 436,232 491,232 491,218 458,218 457,217 457,216 460,213 461,213 464,210 465,210 468,207 469,207 471,205 472,205 475,202 476,202 479,199 480,199 485,194 485,193 487,191 487,190 488,189 488,188 489,187 489,186 490,185 490,181 491,180 491,173 490,172 490,169 489,168 489,166 488,165 488,164 486,162 486,161 481,156 480,156 479,155 478,155 477,154 476,154 475,153 473,153 472,152 466,152 465,151" stroke="#000" stroke-width="5" /><polygon fill="#000" fill-opacity="0.4" points="397,151 396,152 392,152 391,153 389,153 388,154 387,154 385,156 384,156 381,159 381,160 379,162 379,163 378,164 378,165 377,166 377,168 376,169 376,171 375,172 375,176 374,177 374,183 373,184 373,201 374,202 374,208 375,209 375,213 376,214 376,216 377,217 377,219 378,220 378,221 379,222 379,223 380,224 380,225 385,230 386,230 387,231 388,231 389,232 391,232 392,233 395,233 396,234 405,234 406,233 410,233 411,232 413,232 415,230 416,230 422,224 422,223 423,222 423,221 424,220 424,219 425,218 425,216 426,215 426,212 427,211 427,206 428,205 428,180 427,179 427,174 426,173 426,171 425,170 425,168 424,167 424,165 423,164 423,163 422,162 422,161 416,155 415,155 414,154 413,154 412,153 411,153 410,152 406,152 405,151" stroke="#000" stroke-width="5" /><polygon fill="#000" fill-opacity="0.4" points="397,165 398,164 404,164 405,165 406,165 409,168 409,169 410,170 410,172 411,173 411,177 412,178 412,207 411,208 411,212 410,213 410,215 409,216 409,217 406,220 405,220 404,221 397,221 395,219 394,219 393,218 393,217 392,216 392,215 391,214 391,211 390,210 390,205 389,204 389,181 390,180 390,174 391,173 391,171 392,170 392,169 396,165" stroke="#000" stroke-width="5" /><polygon fill="#000" fill-opacity="0.4" points="335,151 334,152 329,152 328,153 326,153 325,154 324,154 323,155 322,155 320,157 319,157 317,159 317,160 315,162 315,163 314,164 314,165 313,166 313,168 312,169 312,173 311,174 311,180 326,180 326,175 327,174 327,171 328,170 328,169 331,166 332,166 333,165 336,165 337,164 339,164 340,165 342,165 343,166 344,166 347,169 347,170 348,171 348,173 349,174 349,179 348,180 348,182 347,183 347,184 345,186 345,187 341,191 340,191 336,195 335,195 332,198 331,198 329,200 328,200 324,204 323,204 318,209 318,210 315,213 315,214 314,215 314,216 313,217 313,219 312,220 312,222 311,223 311,226 310,227 310,232 365,232 365,218 331,218 330,217 335,212 336,212 339,209 340,209 342,207 343,207 346,204 347,204 349,202 350,202 355,197 356,197 358,195 358,194 361,191 361,190 362,189 362,188 363,187 363,185 364,184 364,179 365,178 365,176 364,175 364,169 363,168 363,167 362,166 362,164 360,162 360,161 356,157 355,157 353,155 352,155 351,154 350,154 349,153 347,153 346,152 340,152 339,151" stroke="#000" stroke-width="5" /><polygon fill="#000" fill-opacity="0.4" points="274,146 274,150 282,150 283,151 283,173 288,173 288,146" stroke="#000" stroke-width="5" /><polygon fill="#000" fill-opacity="0.4" points="64,146 64,173 68,173 68,152 70,150 77,150 77,146" stroke="#000" stroke-width="5" /><polygon fill="#000" fill-opacity="0.4" points="629,49 629,50 630,51 630,52 631,53 631,54 632,55 632,57 633,58 633,59 634,60 634,61 635,62 635,64 636,65 636,66 637,67 637,68 638,69 638,70 639,71 639,72 638,73 638,74 637,75 637,77 636,78 636,79 635,80 635,82 634,83 638,83 639,82 639,81 640,80 640,78 641,77 641,76 642,75 642,74 643,73 643,71 644,70 644,69 645,68 645,67 646,66 646,65 647,64 647,62 648,61 648,60 649,59 649,58 650,57 650,55 651,54 651,53 652,52 652,51 653,50 653,49 649,49 648,50 648,52 647,53 647,54 646,55 646,57 645,58 645,59 644,60 644,61 643,62 643,64 642,65 642,66 641,67 640,66 640,65 639,64 639,62 638,61 638,60 637,59 637,57 636,56 636,55 635,54 635,52 634,51 634,50 633,49" stroke="#000" stroke-width="5" /><polygon fill="#000" fill-opacity="0.4" points="610,48 609,49 606,49 605,50 604,50 602,52 602,53 601,54 601,55 602,55 603,56 604,56 605,55 605,54 606,53 607,53 608,52 613,52 615,54 615,57 613,59 607,59 606,60 603,60 602,61 601,61 601,62 600,63 600,68 601,69 601,70 602,71 603,71 604,72 612,72 614,70 615,70 617,72 623,72 623,69 620,69 619,68 619,54 618,53 618,52 615,49 612,49 611,48" stroke="#000" stroke-width="5" /><polygon fill="#000" fill-opacity="0.4" points="610,62 611,61 614,61 615,62 615,66 613,68 612,68 611,69 606,69 603,66 603,65 606,62" stroke="#000" stroke-width="5" /><polygon fill="#000" fill-opacity="0.4" points="538,47 537,48 535,48 534,49 533,49 532,50 531,50 529,52 533,56 536,53 537,53 538,52 541,52 542,53 543,53 544,54 544,55 545,56 543,58 533,58 532,59 531,59 529,61 529,63 528,64 528,65 529,66 529,68 530,69 530,70 531,70 533,72 541,72 544,69 545,70 545,72 550,72 550,53 549,52 549,51 547,49 546,49 545,48 543,48 542,47" stroke="#000" stroke-width="5" /><polygon fill="#000" fill-opacity="0.4" points="536,62 543,62 544,63 544,64 541,67 540,67 539,68 537,68 536,67 535,67 534,66 534,64" stroke="#000" stroke-width="5" /><polygon fill="#000" fill-opacity="0.4" points="493,47 492,48 490,48 489,49 488,49 485,52 485,53 486,54 487,54 489,56 492,53 493,53 494,52 497,52 500,55 500,57 499,58 488,58 487,59 486,59 485,60 485,61 484,62 484,67 485,68 485,69 487,71 488,71 489,72 496,72 497,71 498,71 499,70 501,72 506,72 506,55 505,54 505,52 501,48 499,48 498,47" stroke="#000" stroke-width="5" /><polygon fill="#000" fill-opacity="0.4" points="490,63 491,62 499,62 500,63 500,64 497,67 495,67 494,68 493,68 492,67 491,67 490,66" stroke="#000" stroke-width="5" /><polygon fill="#000" fill-opacity="0.4" points="423,47 422,48 420,48 418,50 417,49 417,48 411,48 411,72 417,72 417,57 418,56 418,55 421,52 424,52 425,53 426,53 427,54 427,71 428,72 433,72 433,53 432,52 432,51 429,48 427,48 426,47" stroke="#000" stroke-width="5" /><polygon fill="#000" fill-opacity="0.4" points="393,47 392,48 390,48 389,49 388,49 386,51 386,52 385,53 385,54 384,55 384,65 385,66 385,67 389,71 390,71 391,72 400,72 401,71 402,71 405,68 402,65 401,65 400,66 399,66 398,67 393,67 392,66 391,66 390,65 390,64 389,63 390,62 405,62 406,61 406,55 405,54 405,53 404,52 404,51 402,49 401,49 400,48 398,48 397,47" stroke="#000" stroke-width="5" /><polygon fill="#000" fill-opacity="0.4" points="392,53 393,52 397,52 398,53 399,53 400,54 400,55 401,56 400,57 390,57 389,56 390,55 390,54 391,53" stroke="#000" stroke-width="5" /><polygon fill="#000" fill-opacity="0.4" points="368,47 367,48 365,48 364,49 363,48 357,48 357,82 363,82 363,71 364,70 366,72 374,72 376,70 377,70 377,69 379,67 379,65 380,64 380,55 379,54 379,53 378,52 378,51 376,49 375,49 374,48 373,48 372,47" stroke="#000" stroke-width="5" /><polygon fill="#000" fill-opacity="0.4" points="366,53 367,52 370,52 371,53 372,53 374,55 374,58 375,59 375,61 374,62 374,64 371,67 366,67 363,64 363,63 362,62 362,58 363,57 363,55 365,53" stroke="#000" stroke-width="5" /><polygon fill="#000" fill-opacity="0.4" points="518,39 515,42 514,42 513,43 513,47 512,48 509,48 509,52 512,52 513,53 513,67 514,68 514,69 517,72 525,72 525,67 524,67 523,68 521,68 519,66 519,53 520,52 525,52 525,48 520,48 519,47 519,39" stroke="#000" stroke-width="5" /><polygon fill="#000" fill-opacity="0.4" points="453,38 453,72 467,72 468,71 471,71 472,70 473,70 475,68 476,68 477,67 477,66 479,64 479,62 480,61 480,49 479,48 479,46 477,44 477,43 475,41 474,41 473,40 472,40 471,39 470,39 469,38" stroke="#000" stroke-width="5" /><polygon fill="#000" fill-opacity="0.4" points="459,44 460,43 467,43 468,44 469,44 470,45 471,45 472,46 472,47 474,49 474,53 475,54 475,56 474,57 474,60 473,61 473,62 470,65 469,65 468,66 464,66 463,67 460,67 459,66" stroke="#000" stroke-width="5" /><polygon fill="#000" fill-opacity="0.4" points="570,37 569,38 569,72 581,72 582,71 584,71 585,70 586,70 589,67 589,66 590,65 590,64 591,63 591,60 592,59 592,50 591,49 591,47 590,46 590,44 588,42 588,41 587,40 586,40 585,39 584,39 583,38 580,38 579,37" stroke="#000" stroke-width="5" /><polygon fill="#000" fill-opacity="0.4" points="573,42 574,41 581,41 582,42 583,42 586,45 586,46 587,47 587,49 588,50 588,59 587,60 587,63 582,68 574,68 573,67" stroke="#000" stroke-width="5" /><polygon fill="#000" fill-opacity="0.4" points="331,37 330,38 328,38 327,39 326,39 321,44 321,45 320,46 320,48 319,49 319,61 320,62 320,63 321,64 321,65 322,66 322,67 324,69 325,69 327,71 328,71 329,72 332,72 333,73 337,73 338,72 341,72 342,71 343,71 344,70 345,70 348,67 348,66 349,65 349,64 350,63 350,62 351,61 351,49 350,48 350,46 349,45 349,44 344,39 343,39 342,38 340,38 339,37" stroke="#000" stroke-width="5" /><polygon fill="#000" fill-opacity="0.4" points="334,43 335,42 336,43 339,43 340,44 341,44 343,46 343,47 345,49 345,53 346,54 346,56 345,57 345,60 344,61 344,62 340,66 339,66 338,67 332,67 331,66 330,66 326,62 326,61 325,60 325,50 326,49 326,48 327,47 327,46 329,44 330,44 331,43" stroke="#000" stroke-width="5" /><polygon fill="#000" fill-opacity="0.4" points="100,11 99,12 96,12 95,13 92,13 91,14 88,14 87,15 86,15 84,17 83,17 82,18 81,18 78,21 77,21 74,24 74,25 71,28 71,29 69,31 69,33 68,34 68,35 67,36 67,37 66,38 66,41 65,42 65,58 66,59 66,62 67,63 67,64 68,65 68,67 69,68 69,69 71,71 71,72 73,74 73,75 77,79 78,79 81,82 82,82 83,83 84,83 86,85 87,85 88,86 91,86 92,87 94,87 95,88 100,88 101,89 105,89 106,88 111,88 112,87 114,87 115,86 117,86 118,85 120,85 122,83 123,83 124,82 125,82 129,78 130,78 130,77 134,73 134,72 136,70 136,69 137,68 137,67 138,66 138,65 139,64 139,63 140,62 140,59 141,58 141,56 142,55 151,55 152,56 154,56 155,57 155,87 157,87 159,85 160,85 161,84 162,84 164,82 165,82 166,81 167,81 168,80 169,80 171,78 172,78 173,77 174,77 176,75 177,75 178,74 179,74 180,73 181,73 183,71 184,71 185,70 186,70 187,69 188,69 190,67 191,67 192,66 193,66 194,65 195,65 196,64 197,65 200,65 201,66 203,66 204,67 207,67 208,68 210,68 211,69 213,69 216,72 216,109 217,108 218,108 219,107 220,107 221,106 222,106 224,104 225,104 226,103 227,103 228,102 229,102 230,101 231,101 233,99 234,99 235,98 236,98 237,97 238,97 240,95 241,95 242,94 243,94 245,92 246,92 247,91 248,91 249,90 250,90 252,88 253,88 254,87 255,87 257,85 258,85 259,84 260,84 261,83 262,83 264,81 265,81 266,80 267,80 268,79 269,79 271,77 272,77 273,76 274,76 274,74 273,74 272,73 271,73 269,71 268,71 267,70 266,70 265,69 264,69 262,67 261,67 260,66 259,66 258,65 257,65 255,63 254,63 253,62 252,62 251,61 250,61 248,59 247,59 246,58 245,58 244,57 243,57 241,55 240,55 239,54 238,54 236,52 235,52 234,51 233,51 232,50 231,50 229,48 228,48 227,47 226,47 225,46 224,46 222,44 221,44 220,43 219,43 217,41 216,41 216,65 214,67 212,67 211,66 209,66 208,65 206,65 205,64 202,64 201,63 201,61 202,60 203,60 204,59 205,59 206,58 207,58 208,57 208,56 206,54 205,54 204,53 203,53 201,51 200,51 199,50 198,50 197,49 196,49 194,47 193,47 192,46 191,46 190,45 189,45 187,43 186,43 185,42 184,42 183,41 182,41 180,39 179,39 178,38 177,38 176,37 175,37 173,35 172,35 171,34 170,34 169,33 168,33 166,31 165,31 164,30 163,30 162,29 161,29 159,27 158,27 157,26 155,26 155,52 154,53 144,53 143,52 142,52 141,51 141,42 140,41 140,38 139,37 139,36 138,35 138,34 137,33 137,32 136,31 136,30 134,28 134,27 125,18 124,18 123,17 122,17 121,16 120,16 119,15 118,15 117,14 115,14 114,13 111,13 110,12 107,12 106,11" stroke="#000" stroke-width="5" /><polygon fill="#000" fill-opacity="0.4" points="163,58 164,57 167,57 169,59 169,60 170,60 171,61 176,61 178,59 180,59 181,60 182,60 183,61 183,62 181,64 180,64 179,65 178,65 176,67 175,67 174,68 173,68 172,69 171,69 169,71 168,71 167,72 166,72 165,73 164,73 163,72" stroke="#000" stroke-width="5" /><polygon fill="#000" fill-opacity="0.4" points="223,56 224,55 225,55 226,56 227,56 229,58 230,58 231,59 232,59 233,60 234,60 236,62 237,62 238,63 239,63 240,64 241,64 243,66 244,66 245,67 246,67 248,69 249,69 250,70 251,70 252,71 253,71 255,73 256,73 258,75 255,78 254,78 253,79 252,79 251,80 250,80 248,82 247,82 246,83 245,83 244,84 243,84 241,86 240,86 239,87 238,87 237,88 236,88 234,90 233,90 232,91 231,91 230,92 229,92 227,94 226,94 225,95 223,93 223,74 224,73 227,73 228,74 230,74 231,75 231,77 234,80 239,80 241,78 241,72 240,71 239,71 238,70 234,70 232,72 229,72 228,71 225,71 224,70 224,69 223,68" stroke="#000" stroke-width="5" /><polygon fill="#000" fill-opacity="0.4" points="163,40 164,39 165,40 166,40 167,41 168,41 170,43 171,43 172,44 173,44 174,45 175,45 177,47 178,47 179,48 180,48 181,49 182,49 184,51 185,51 186,52 187,52 188,53 189,53 192,56 192,57 191,58 190,58 189,59 186,59 185,58 182,58 181,57 180,57 178,55 178,54 175,51 172,51 171,52 170,52 168,54 164,54 163,53" stroke="#000" stroke-width="5" /><polygon fill="#000" fill-opacity="0.4" points="95,18 96,17 110,17 111,18 112,18 113,19 115,19 116,20 118,20 120,22 121,22 123,24 124,24 128,28 128,29 131,32 131,33 132,34 132,35 134,37 134,39 135,40 135,43 136,44 136,50 135,51 122,51 121,50 110,50 109,49 107,49 106,48 106,47 105,47 104,46 102,46 101,47 100,47 100,48 99,49 99,51 100,52 100,53 101,54 105,54 106,53 106,52 107,51 108,52 118,52 119,53 130,53 131,54 134,54 136,56 135,57 135,60 134,61 134,63 132,65 132,66 131,67 131,68 129,70 129,71 124,76 123,76 120,79 119,79 118,80 116,80 115,81 114,81 113,82 111,82 110,83 96,83 95,82 93,82 92,81 90,81 89,80 88,80 87,79 86,79 84,77 83,77 76,70 76,69 74,67 74,66 73,65 73,64 72,63 72,61 71,60 71,57 70,56 70,44 71,43 71,40 72,39 72,37 73,36 73,35 75,33 75,32 77,30 77,29 83,23 84,23 85,22 86,22 88,20 89,20 90,19 92,19 93,18" stroke="#000" stroke-width="5" /><polygon fill="#000" fill-opacity="0.4" points="724,0 724,2 723,3 723,4 722,5 722,6 721,7 721,8 720,9 720,11 719,12 719,13 718,14 718,15 717,16 717,17 716,18 716,20 715,21 715,22 714,23 714,24 713,25 713,27 712,28 712,29 711,30 711,31 710,32 710,33 709,34 709,36 708,37 708,38 707,39 707,40 706,41 706,42 705,43 705,45 704,46 704,47 703,48 703,49 702,50 702,51 701,52 701,54 700,55 700,56 699,57 699,58 698,59 698,61 697,62 697,63 696,64 696,65 695,66 695,67 694,68 694,70 693,71 693,72 692,73 692,74 691,75 691,76 690,77 690,79 689,80 689,81 688,82 688,83 687,84 687,85 686,86 686,88 685,89 685,90 684,91 684,92 683,93 683,94 682,95 682,97 681,98 681,99 680,100 680,101 679,102 679,104 678,105 678,106 677,107 677,108 676,109 676,110 675,111 675,113 674,114 674,115 672,117 0,117 0,134 623,134 624,135 623,136 623,137 622,138 622,140 621,141 621,142 620,143 620,144 619,145 619,147 618,148 618,149 617,150 617,151 616,152 616,153 615,154 615,156 614,157 614,158 613,159 613,160 612,161 612,162 611,163 611,165 610,166 610,167 609,168 609,169 608,170 608,171 607,172 607,174 606,175 606,176 605,177 605,178 604,179 604,181 603,182 603,183 602,184 602,185 601,186 601,187 600,188 600,190 599,191 599,192 598,193 598,194 597,195 597,196 596,197 596,199 595,200 595,201 594,202 594,203 593,204 593,205 592,206 592,208 591,209 591,210 590,211 590,212 589,213 589,214 588,215 588,217 587,218 587,219 586,220 586,221 585,222 585,224 584,225 584,226 583,227 583,228 582,229 582,230 581,231 581,233 580,234 580,235 579,236 579,237 578,238 578,239 577,240 577,242 576,243 576,244 575,245 575,246 574,247 574,248 573,249 573,251 572,252 0,252 0,369 17,369 17,334 18,333 48,333 49,334 49,369 65,369 65,290 66,289 104,289 105,290 105,291 104,292 104,294 103,295 103,297 102,298 102,300 101,301 101,303 100,304 100,305 99,306 99,308 98,309 98,311 97,312 97,314 96,315 96,317 95,318 95,319 94,320 94,322 93,323 93,325 92,326 92,328 91,329 91,331 90,332 90,333 89,334 89,336 88,337 88,339 87,340 87,342 86,343 86,345 85,346 85,348 84,349 84,350 83,351 83,353 82,354 82,356 81,357 81,359 80,360 80,361 79,362 79,364 78,365 78,367 77,368 77,369 94,369 94,368 95,367 95,365 96,364 96,362 97,361 97,359 98,358 98,356 99,355 99,354 100,353 130,353 131,354 131,356 132,357 132,359 133,360 133,363 134,364 134,366 135,367 135,369 153,369 153,368 152,367 152,365 151,364 151,362 150,361 150,360 149,359 149,357 148,356 148,354 147,353 147,351 146,350 146,348 145,347 145,345 144,344 144,343 143,342 143,340 142,339 142,337 141,336 141,334 140,333 140,331 139,330 139,328 138,327 138,326 137,325 137,323 136,322 136,320 135,319 135,317 134,316 134,314 133,313 133,312 132,311 132,309 131,308 131,306 130,305 130,303 129,302 129,300 128,299 128,297 127,296 127,295 126,294 126,292 125,291 125,290 126,289 180,289 181,290 179,292 178,292 176,294 175,294 169,300 169,301 167,303 167,304 166,305 166,306 165,307 165,308 164,309 164,311 163,312 163,315 162,316 162,320 161,321 161,338 162,339 162,343 163,344 163,347 164,348 164,350 165,351 165,352 166,353 166,354 167,355 167,356 170,359 170,360 174,364 175,364 178,367 179,367 180,368 181,368 182,369 184,369 185,370 187,370 188,371 194,371 195,372 201,372 202,371 208,371 209,370 211,370 212,369 213,369 214,368 215,368 216,367 217,367 219,365 220,365 226,359 226,358 228,356 228,355 229,354 229,353 230,352 230,350 231,349 231,347 232,346 232,342 217,342 216,343 216,345 215,346 215,347 214,348 214,349 213,350 213,351 209,355 208,355 207,356 206,356 205,357 202,357 201,358 196,358 195,357 192,357 191,356 190,356 189,355 188,355 182,349 182,348 180,346 180,344 179,343 179,340 178,339 178,320 179,319 179,316 180,315 180,314 181,313 181,311 183,309 183,308 187,304 188,304 190,302 192,302 193,301 204,301 205,302 207,302 209,304 210,304 213,307 213,308 215,310 215,312 216,313 216,314 217,315 233,315 233,313 232,312 232,309 231,308 231,306 230,305 230,304 228,302 228,301 226,299 226,298 222,294 221,294 219,292 218,292 217,291 216,291 215,290 216,289 246,289 247,290 247,369 263,369 263,342 271,334 274,337 274,338 277,341 277,342 279,344 279,345 281,347 281,348 284,351 284,352 286,354 286,355 289,358 289,359 291,361 291,362 294,365 294,366 296,368 296,369 317,369 317,368 315,366 315,365 312,362 312,361 309,358 309,357 306,354 306,353 304,351 304,350 301,347 301,346 298,343 298,342 295,339 295,338 293,336 293,335 290,332 290,331 287,328 287,327 285,325 285,324 283,322 299,306 299,305 315,289 343,289 344,290 344,369 387,369 388,368 390,368 391,367 393,367 394,366 395,366 396,365 397,365 405,357 405,356 406,355 406,354 408,352 408,350 409,349 409,348 410,347 410,345 411,344 411,340 412,339 412,333 413,332 413,322 412,321 412,316 411,315 411,311 410,310 410,308 409,307 409,306 408,305 408,304 406,302 406,301 404,299 404,298 401,295 400,295 398,293 397,293 396,292 395,292 394,291 393,291 392,290 393,289 448,289 449,290 449,291 448,292 448,294 447,295 447,297 446,298 446,300 445,301 445,302 444,303 444,305 443,306 443,308 442,309 442,311 441,312 441,314 440,315 440,316 439,317 439,319 438,320 438,322 437,323 437,325 436,326 436,328 435,329 435,330 434,331 434,333 433,334 433,336 432,337 432,339 431,340 431,342 430,343 430,344 429,345 429,347 428,348 428,350 427,351 427,353 426,354 426,356 425,357 425,358 424,359 424,361 423,362 423,364 422,365 422,367 421,368 421,369 438,369 438,368 439,367 439,365 440,364 440,362 441,361 441,359 442,358 442,356 443,355 443,354 444,353 474,353 475,354 475,357 476,358 476,360 477,361 477,363 478,364 478,366 479,367 479,369 497,369 497,368 496,367 496,366 495,365 495,363 494,362 494,360 493,359 493,357 492,356 492,354 491,353 491,351 490,350 490,349 489,348 489,346 488,345 488,343 487,342 487,340 486,339 486,337 485,336 485,334 484,333 484,332 483,331 483,329 482,328 482,326 481,325 481,323 480,322 480,320 479,319 479,318 478,317 478,315 477,314 477,312 476,311 476,309 475,308 475,306 474,305 474,303 473,302 473,301 472,300 472,298 471,297 471,295 470,294 470,292 469,291 469,290 470,289 491,289 493,291 493,292 494,293 494,294 496,296 496,297 497,298 497,299 498,300 498,301 499,302 499,303 501,305 501,306 502,307 502,308 503,309 503,310 504,311 504,312 506,314 506,315 507,316 507,317 508,318 508,319 509,320 509,321 511,323 511,324 512,325 512,326 513,327 513,328 514,329 514,330 516,332 516,333 517,334 517,335 518,336 518,337 519,338 519,348 518,349 518,350 517,351 517,352 516,353 516,354 515,355 515,357 514,358 514,359 513,360 513,361 512,362 512,363 511,364 511,366 510,367 510,368 509,369 509,370 508,371 508,373 507,374 507,375 506,376 506,377 505,378 505,379 504,380 504,382 503,383 503,384 502,385 502,386 501,387 501,388 500,389 500,391 499,392 499,393 498,394 498,395 497,396 497,397 496,398 496,400 495,401 495,402 494,403 494,404 493,405 493,406 492,407 220,407 219,406 202,406 201,407 0,407 0,674 383,674 383,672 384,671 384,670 385,669 385,668 386,667 386,666 387,665 387,663 388,662 388,661 389,660 389,659 390,658 390,657 391,656 391,654 392,653 392,652 393,651 393,650 394,649 394,648 395,647 395,646 396,645 396,643 397,642 397,641 398,640 398,639 399,638 399,637 400,636 400,634 401,633 401,632 402,631 402,630 403,629 403,628 404,627 404,626 405,625 405,623 406,622 406,621 407,620 407,619 408,618 408,617 409,616 409,614 410,613 410,612 411,611 411,610 412,609 412,608 413,607 413,606 414,605 414,603 415,602 415,601 416,600 416,599 417,598 417,597 418,596 418,594 419,593 419,592 420,591 420,590 421,589 421,588 422,587 422,586 423,585 423,583 424,582 424,581 425,580 425,579 426,578 426,577 427,576 427,574 428,573 428,572 429,571 429,570 430,569 430,568 431,567 431,565 432,564 432,563 433,562 433,561 434,560 434,559 435,558 435,557 436,556 436,554 437,553 437,552 438,551 438,550 439,549 439,548 440,547 440,545 441,544 441,543 442,542 442,541 443,540 443,539 444,538 444,537 445,536 445,534 446,533 446,532 447,531 447,530 448,529 448,528 449,527 449,525 450,524 450,523 451,522 451,521 452,520 452,519 453,518 453,517 454,516 454,514 455,513 455,512 456,511 456,510 457,509 457,508 458,507 458,505 459,504 459,503 460,502 460,501 461,500 461,499 462,498 462,497 463,496 463,494 464,493 464,492 465,491 465,490 466,489 466,488 467,487 467,485 468,484 468,483 469,482 469,481 470,480 470,479 471,478 471,476 472,475 472,474 473,473 473,472 474,471 474,470 475,469 475,468 476,467 476,465 477,464 477,463 478,462 478,461 479,460 479,459 480,458 480,456 481,455 481,454 482,453 482,452 483,451 483,450 484,449 484,448 485,447 485,445 486,444 486,443 487,442 487,441 488,440 488,439 489,438 489,436 490,435 490,434 491,433 491,432 492,431 492,430 493,429 493,428 494,427 494,425 495,424 495,423 497,421 500,421 501,422 501,488 517,488 517,422 518,421 542,421 542,407 504,407 503,406 503,405 504,404 504,403 505,402 505,401 506,400 506,399 507,398 507,396 508,395 508,394 509,393 509,392 510,391 510,390 511,389 511,387 512,386 512,385 513,384 513,383 514,382 514,381 515,380 515,379 516,378 516,376 517,375 517,374 518,373 518,372 519,371 519,370 520,369 536,369 536,338 537,337 537,336 538,335 538,334 540,332 540,331 541,330 541,329 542,328 542,327 543,326 543,325 544,324 544,323 545,322 545,321 547,319 547,318 548,317 548,316 549,315 549,314 550,313 550,312 551,311 551,310 552,309 552,308 553,307 553,306 555,304 555,303 556,302 556,301 557,300 557,299 558,298 558,297 559,296 559,295 560,294 560,293 562,291 562,290 563,289 805,289 806,290 806,292 805,293 805,294 804,295 804,296 803,297 803,299 802,300 802,301 801,302 801,303 800,304 800,305 799,306 799,308 798,309 798,310 797,311 797,312 796,313 796,314 795,315 795,317 794,318 794,319 793,320 793,321 792,322 792,323 791,324 791,326 790,327 790,328 789,329 789,330 788,331 788,333 787,334 787,335 786,336 786,337 785,338 785,339 784,340 784,342 783,343 783,344 782,345 782,346 781,347 781,348 780,349 780,351 779,352 779,353 778,354 778,355 777,356 777,357 776,358 776,360 775,361 775,362 774,363 774,364 773,365 773,366 772,367 772,369 771,370 771,371 770,372 770,373 769,374 769,376 768,377 768,378 767,379 767,380 766,381 766,382 765,383 765,385 764,386 764,387 763,388 763,389 762,390 762,391 761,392 761,394 760,395 760,396 759,397 759,398 758,399 758,400 757,401 757,403 756,404 756,405 755,406 755,407 754,408 754,410 753,411 753,412 752,413 752,414 751,415 751,416 750,417 750,419 749,420 749,421 748,422 748,423 747,424 747,425 746,426 746,428 745,429 745,430 744,431 744,432 743,433 743,434 742,435 742,437 741,438 741,439 740,440 740,441 739,442 739,444 738,445 738,446 737,447 737,448 736,449 736,450 735,451 735,453 734,454 734,455 733,456 733,457 732,458 732,459 731,460 731,462 730,463 730,464 729,465 729,466 728,467 728,468 727,469 727,471 726,472 726,473 725,474 725,475 724,476 724,478 723,479 723,480 722,481 722,482 721,483 721,484 720,485 720,487 719,488 817,488 817,487 818,486 818,484 819,483 819,482 820,481 820,480 821,479 821,478 822,477 822,475 823,474 823,473 824,472 824,471 825,470 825,469 826,468 826,466 827,465 827,464 828,463 828,462 829,461 829,459 830,458 830,457 831,456 831,455 832,454 832,453 833,452 833,450 834,449 834,448 835,447 835,446 836,445 836,444 837,443 837,441 838,440 838,439 839,438 840,439 841,439 842,440 843,440 845,442 845,443 844,444 844,445 843,446 843,448 842,449 842,450 841,451 841,452 840,453 840,454 839,455 839,457 838,458 838,459 837,460 837,461 836,462 836,463 835,464 835,466 834,467 834,468 833,469 833,470 832,471 832,472 831,473 831,475 830,476 830,477 829,478 829,479 828,480 828,481 827,482 827,484 826,485 826,486 825,487 825,488 859,488 860,489 860,565 876,565 876,489 877,488 1199,488 1199,398 1198,397 1198,349 1197,349 1197,397 1196,398 1195,398 1194,397 1194,349 1192,349 1192,354 1193,355 1193,397 1192,398 1191,398 1190,397 1190,361 1189,360 1189,349 1188,348 1188,309 1188,375 1189,376 1189,397 1188,398 1187,398 1186,397 1186,383 1185,382 1185,310 1184,309 1184,395 1185,396 1185,397 1184,398 1182,398 1181,397 1181,310 1180,309 1179,310 1179,320 1180,321 1180,397 1179,398 1178,398 1177,397 1177,327 1176,326 1176,309 1175,310 1175,340 1176,341 1176,397 1175,398 1174,398 1173,397 1173,341 1172,340 1172,309 1171,309 1171,354 1172,355 1172,397 1171,398 1170,398 1169,397 1169,361 1168,360 1168,309 1167,309 1167,375 1168,376 1168,397 1167,398 1166,398 1165,397 1165,382 1164,381 1164,310 1163,309 1163,395 1164,396 1164,397 1163,398 1162,398 1161,397 1161,396 1160,395 1160,313 1159,314 1159,315 1158,316 1158,320 1159,321 1159,397 1158,398 1157,398 1156,397 1156,327 1155,326 1155,323 1155,324 1154,325 1154,339 1155,340 1155,397 1154,398 1153,398 1152,397 1152,341 1151,340 1151,332 1151,333 1150,334 1150,353 1151,354 1151,397 1150,398 1149,398 1148,397 1148,361 1147,360 1147,341 1147,343 1146,344 1146,375 1147,376 1147,397 1146,398 1145,398 1144,397 1144,382 1143,381 1143,351 1143,352 1142,353 1142,394 1143,395 1143,397 1142,398 1141,398 1140,397 1140,396 1139,395 1139,360 1139,361 1138,362 1138,397 1137,398 1136,398 1135,397 1135,370 1134,371 1134,397 1133,398 1132,398 1131,397 1131,379 1131,380 1130,381 1130,397 1129,398 1128,398 1127,397 1127,388 1127,389 1126,390 1126,397 1125,398 1122,398 1121,397 1121,349 1121,397 1120,398 1119,398 1118,397 1118,349 1116,349 1116,351 1117,352 1117,397 1116,398 1115,398 1114,397 1114,358 1113,357 1113,349 1112,349 1112,371 1113,372 1113,397 1112,398 1111,398 1110,397 1110,372 1109,371 1109,349 1108,348 1108,310 1108,385 1109,386 1109,397 1108,398 1107,398 1106,397 1106,392 1105,391 1105,310 1104,309 1103,310 1103,315 1104,316 1104,397 1103,398 1102,398 1101,397 1101,317 1100,316 1100,309 1099,310 1099,329 1100,330 1100,397 1099,398 1098,398 1097,397 1097,337 1096,336 1096,309 1095,310 1095,351 1096,352 1096,397 1095,398 1094,398 1093,397 1093,358 1092,357 1092,309 1091,309 1091,370 1092,371 1092,397 1091,398 1090,398 1089,397 1089,372 1088,371 1088,310 1087,309 1087,384 1088,385 1088,397 1087,398 1086,398 1085,397 1085,392 1084,391 1084,310 1083,309 1082,310 1082,315 1083,316 1083,397 1082,398 1081,398 1080,397 1080,317 1079,316 1079,313 1079,315 1078,316 1078,329 1079,330 1079,397 1078,398 1077,398 1076,397 1076,336 1075,335 1075,322 1075,324 1074,325 1074,350 1075,351 1075,397 1074,398 1073,398 1072,397 1072,358 1071,357 1071,332 1071,333 1070,334 1070,370 1071,371 1071,397 1070,398 1069,398 1068,397 1068,372 1067,371 1067,341 1067,342 1066,343 1066,384 1067,385 1067,397 1066,398 1065,398 1064,397 1064,391 1063,390 1063,351 1063,352 1062,353 1062,397 1061,398 1060,398 1059,397 1059,360 1059,361 1058,362 1058,397 1057,398 1056,398 1055,397 1055,369 1055,370 1054,371 1054,397 1053,398 1052,398 1051,397 1051,379 1050,380 1050,397 1049,398 1048,398 1047,397 1047,389 1046,390 1046,397 1045,398 1041,398 1040,397 1040,388 1039,387 1039,349 1039,395 1040,396 1040,397 1039,398 1037,398 1036,397 1036,349 1035,349 1035,397 1034,398 1033,398 1032,397 1032,349 1031,349 1031,397 1030,398 1029,398 1028,397 1028,349 1027,348 1027,346 1026,345 1026,309 1026,361 1027,362 1027,397 1026,398 1025,398 1024,397 1024,369 1023,368 1023,310 1022,309 1022,381 1023,382 1023,397 1022,398 1021,398 1020,397 1020,383 1019,382 1019,310 1018,309 1018,395 1019,396 1019,397 1018,398 1016,398 1015,397 1015,313 1014,312 1014,309 1013,310 1013,326 1014,327 1014,397 1013,398 1012,398 1011,397 1011,327 1010,326 1010,309 1009,310 1009,339 1010,340 1010,397 1009,398 1008,398 1007,397 1007,347 1006,346 1006,309 1005,309 1005,361 1006,362 1006,397 1005,398 1004,398 1003,397 1003,368 1002,367 1002,310 1001,309 1001,381 1002,382 1002,397 1001,398 1000,398 999,397 999,382 998,381 998,313 997,314 997,395 998,396 998,397 997,398 995,398 994,397 994,322 993,323 993,397 992,398 991,398 990,397 990,332 989,332 989,334 988,335 988,339 989,340 989,397 988,398 987,398 986,397 986,346 985,345 985,342 985,343 984,344 984,361 985,362 985,397 984,398 983,398 982,397 982,368 981,367 981,351 981,352 980,353 980,380 981,381 981,397 980,398 979,398 978,397 978,382 977,381 977,360 977,362 976,363 976,394 977,395 977,397 976,398 974,398 973,397 973,370 973,371 972,372 972,397 971,398 970,397 970,290 971,289 1199,289 1199,252 971,252 970,251 970,198 971,197 971,194 972,193 972,192 976,188 977,188 978,187 981,187 982,186 989,186 989,171 981,171 980,172 979,172 978,173 977,173 972,178 972,179 970,181 969,180 969,172 955,172 955,251 954,252 877,252 876,251 876,151 860,151 860,251 859,252 613,252 612,251 613,250 613,249 614,248 614,247 615,246 615,245 616,244 616,242 617,241 617,240 618,239 618,238 619,237 619,236 620,235 620,234 621,233 621,232 622,231 622,229 623,228 623,227 624,226 624,225 625,224 625,223 626,222 626,221 627,220 627,219 628,218 628,217 629,216 629,214 630,213 630,212 631,211 631,210 632,209 632,208 633,207 633,206 634,205 634,204 635,203 635,201 636,200 636,199 637,198 637,197 638,196 638,195 639,194 639,193 640,192 640,191 641,190 641,188 642,187 642,186 643,185 643,184 644,183 644,182 645,181 645,180 646,179 646,178 647,177 647,175 648,174 648,173 649,172 649,171 650,170 650,169 651,168 651,167 652,166 652,165 653,164 653,162 654,161 654,160 655,159 655,158 656,157 656,156 657,155 657,154 658,153 658,152 659,151 659,150 660,149 660,147 661,146 661,145 662,144 662,143 663,142 663,141 664,140 664,139 665,138 665,137 666,136 666,135 667,134 1199,134 1199,0 857,0 856,1 856,3 855,4 855,5 854,6 854,7 853,8 853,9 852,10 852,11 851,12 851,13 850,14 850,16 849,17 849,18 848,19 848,20 847,21 847,22 846,23 846,24 845,25 845,26 844,27 844,29 843,30 843,31 842,32 842,33 841,34 841,35 840,36 840,37 839,38 839,39 838,40 838,41 837,42 837,44 836,45 836,46 835,47 835,48 834,49 834,50 833,51 833,52 832,53 832,54 831,55 831,57 830,58 830,59 829,60 829,61 828,62 828,63 827,64 827,65 826,66 826,67 825,68 825,70 824,71 824,72 823,73 823,74 822,75 822,76 821,77 821,78 820,79 820,80 819,81 819,83 818,84 818,85 817,86 817,87 816,88 816,89 815,90 815,91 814,92 814,93 813,94 813,96 812,97 812,98 811,99 811,100 810,101 810,102 809,103 809,104 808,105 808,106 807,107 807,108 806,109 806,111 805,112 805,113 804,114 804,115 802,117 765,117 764,116 764,115 765,114 765,113 766,112 766,111 767,110 767,108 768,107 768,106 769,105 769,104 770,103 770,101 771,100 771,99 772,98 772,97 773,96 773,94 774,93 774,92 775,91 775,90 776,89 776,88 777,87 777,85 778,84 778,83 779,82 779,81 780,80 780,78 781,77 781,76 782,75 782,74 783,73 783,71 784,70 784,69 785,68 785,67 786,66 786,64 787,63 787,62 788,61 788,60 789,59 789,57 790,56 790,55 791,54 791,53 792,52 792,51 793,50 793,48 794,47 794,46 795,45 795,44 796,43 796,41 797,40 797,39 798,38 798,37 799,36 799,34 800,33 800,32 801,31 801,30 802,29 802,27 803,26 803,25 804,24 804,23 805,22 805,20 806,19 806,18 807,17 807,16 808,15 808,14 809,13 809,11 810,10 810,9 811,8 811,7 812,6 812,4 813,3 813,2 814,1 814,0 801,0 800,1 800,2 799,3 799,4 798,5 798,6 797,7 797,9 796,10 796,11 795,12 795,13 794,14 794,15 793,16 793,17 792,18 792,19 791,20 791,21 790,22 790,24 789,25 789,26 788,27 788,28 787,29 787,30 786,31 786,32 785,33 785,34 784,35 784,37 783,38 783,39 782,40 782,41 781,42 781,43 780,44 780,45 779,46 779,47 778,48 778,50 777,51 777,52 776,53 776,54 775,55 775,56 774,57 774,58 773,59 773,60 772,61 772,63 771,64 771,65 770,66 770,67 769,68 769,69 768,70 768,71 767,72 767,73 766,74 766,76 765,77 765,78 764,79 764,80 763,81 763,82 762,83 762,84 761,85 761,86 760,87 760,88 759,89 759,91 758,92 758,93 757,94 757,95 756,96 756,97 755,98 755,99 754,100 754,101 753,102 753,104 752,105 752,106 751,107 751,108 750,109 750,110 749,111 749,112 748,113 748,114 747,115 747,116 746,117 709,117 708,116 708,115 709,114 709,112 710,111 710,110 711,109 711,108 712,107 712,105 713,104 713,103 714,102 714,101 715,100 715,99 716,98 716,96 717,95 717,94 718,93 718,92 719,91 719,89 720,88 720,87 721,86 721,85 722,84 722,82 723,81 723,80 724,79 724,78 725,77 725,75 726,74 726,73 727,72 727,71 728,70 728,68 729,67 729,66 730,65 730,64 731,63 731,62 732,61 732,59 733,58 733,57 734,56 734,55 735,54 735,52 736,51 736,50 737,49 737,48 738,47 738,45 739,44 739,43 740,42 740,41 741,40 741,38 742,37 742,36 743,35 743,34 744,33 744,31 745,30 745,29 746,28 746,27 747,26 747,25 748,24 748,22 749,21 749,20 750,19 750,18 751,17 751,15 752,14 752,13 753,12 753,11 754,10 754,8 755,7 755,6 756,5 756,4 757,3 757,1 758,0" stroke="#000" stroke-width="5" /><polygon fill="#000" fill-opacity="0.4" points="876,430 877,429 954,429 955,430 953,432 877,432 876,431" stroke="#000" stroke-width="5" /><polygon fill="#000" fill-opacity="0.4" points="761,429 859,429 860,430 860,431 859,432 760,432 759,431" stroke="#000" stroke-width="5" /><polygon fill="#000" fill-opacity="0.4" points="876,425 877,424 954,424 955,425 955,426 953,428 877,428 876,427" stroke="#000" stroke-width="5" /><polygon fill="#000" fill-opacity="0.4" points="762,424 763,423 764,424 859,424 860,425 860,427 859,428 762,428 761,427 761,426 762,425" stroke="#000" stroke-width="5" /><polygon fill="#000" fill-opacity="0.4" points="876,420 877,419 954,419 955,420 955,421 953,423 877,423 876,422" stroke="#000" stroke-width="5" /><polygon fill="#000" fill-opacity="0.4" points="764,419 765,418 766,419 859,419 860,420 860,422 859,423 764,423 763,422 763,421 764,420" stroke="#000" stroke-width="5" /><polygon fill="#000" fill-opacity="0.4" points="876,415 877,414 954,414 955,415 955,416 953,418 877,418 876,417" stroke="#000" stroke-width="5" /><polygon fill="#000" fill-opacity="0.4" points="766,415 767,414 859,414 860,415 860,417 859,418 766,418 765,417 766,416" stroke="#000" stroke-width="5" /><polygon fill="#000" fill-opacity="0.4" points="876,410 877,409 954,409 955,410 955,411 953,413 877,413 876,412" stroke="#000" stroke-width="5" /><polygon fill="#000" fill-opacity="0.4" points="768,410 769,409 859,409 860,410 860,412 859,413 769,413 768,412" stroke="#000" stroke-width="5" /><polygon fill="#000" fill-opacity="0.4" points="876,405 877,404 954,404 955,405 955,407 954,408 877,408 876,407" stroke="#000" stroke-width="5" /><polygon fill="#000" fill-opacity="0.4" points="772,404 859,404 860,405 860,407 859,408 771,408 770,407 770,406" stroke="#000" stroke-width="5" /><polygon fill="#000" fill-opacity="0.4" points="876,400 877,399 954,399 955,400 955,402 954,403 877,403 876,402" stroke="#000" stroke-width="5" /><polygon fill="#000" fill-opacity="0.4" points="774,399 859,399 860,400 860,402 859,403 773,403 772,402 772,401" stroke="#000" stroke-width="5" /><polygon fill="#000" fill-opacity="0.4" points="458,308 459,307 460,308 460,310 461,311 461,313 462,314 462,317 463,318 463,320 464,321 464,323 465,324 465,326 466,327 466,329 467,330 467,332 468,333 468,335 469,336 469,338 468,339 449,339 448,338 449,337 449,335 450,334 450,331 451,330 451,328 452,327 452,325 453,324 453,322 454,321 454,319 455,318 455,316 456,315 456,313 457,312 457,310 458,309" stroke="#000" stroke-width="5" /><polygon fill="#000" fill-opacity="0.4" points="114,308 115,307 116,308 116,310 117,311 117,313 118,314 118,316 119,317 119,319 120,320 120,322 121,323 121,326 122,327 122,329 123,330 123,332 124,333 124,335 125,336 125,338 124,339 105,339 104,338 105,337 105,335 106,334 106,332 107,331 107,329 108,328 108,326 109,325 109,323 110,322 110,320 111,319 111,317 112,316 112,314 113,313 113,311 114,310" stroke="#000" stroke-width="5" /><polygon fill="#000" fill-opacity="0.4" points="360,303 361,302 382,302 383,303 385,303 386,304 387,304 388,305 389,305 392,308 392,309 393,310 393,311 394,312 394,314 395,315 395,318 396,319 396,336 395,337 395,340 394,341 394,343 393,344 393,345 392,346 392,347 391,348 391,349 387,353 386,353 385,354 384,354 383,355 381,355 380,356 361,356 360,355" stroke="#000" stroke-width="5" /><polygon fill="#000" fill-opacity="0.4" points="876,290 877,289 954,289 955,290 955,397 954,398 877,398 876,397" stroke="#000" stroke-width="5" /><polygon fill="#000" fill-opacity="0.4" points="821,290 822,289 859,289 860,290 860,382 859,383 782,383 781,382 781,381 782,380 782,378 783,377 783,376 784,375 784,374 785,373 785,372 786,371 786,369 787,368 787,367 788,366 788,365 789,364 789,363 790,362 790,360 791,359 791,358 792,357 792,356 793,355 793,354 794,353 794,351 795,350 795,349 796,348 796,347 797,346 797,344 798,343 798,342 799,341 799,340 800,339 800,338 801,337 801,335 802,334 802,333 803,332 803,331 804,330 804,329 805,328 805,326 806,325 806,324 807,323 807,322 808,321 808,320 809,319 809,317 810,316 810,315 811,314 811,313 812,312 812,310 813,309 813,308 814,307 814,306 815,305 815,304 816,303 816,301 817,300 817,299 818,298 818,297 819,296 819,295 820,294 820,292 821,291" stroke="#000" stroke-width="5" /><polygon fill="#000" fill-opacity="0.4" points="511,290 512,289 543,289 544,290 543,291 543,292 542,293 542,294 541,295 541,296 540,297 540,299 539,300 539,301 538,302 538,303 537,304 537,305 536,306 536,307 535,308 535,310 534,311 534,312 533,313 533,314 532,315 532,316 531,317 531,318 530,319 530,321 529,322 529,323 528,324 527,323 527,322 526,321 526,320 525,319 525,318 524,317 524,316 523,315 523,314 522,313 522,312 521,311 521,309 520,308 520,307 519,306 519,305 518,304 518,303 517,302 517,301 516,300 516,299 515,298 515,297 514,296 514,295 513,294 513,293 512,292 512,291" stroke="#000" stroke-width="5" /><polygon fill="#000" fill-opacity="0.4" points="263,290 264,289 292,289 293,290 289,294 289,295 274,310 274,311 264,321 263,320" stroke="#000" stroke-width="5" /><polygon fill="#000" fill-opacity="0.4" points="17,290 18,289 48,289 49,290 49,319 48,320 18,320 17,319" stroke="#000" stroke-width="5" /></svg>