<?xml version="1.0" encoding="utf-8" ?>
<svg baseProfile="tiny" height="675" version="1.2" width="1200" xmlns="http://www.w3.org/2000/svg" xmlns:ev="http://www.w3.org/2001/xml-events" xmlns:xlink="http://www.w3.org/1999/xlink"><defs /><rect fill="#000" height="675" width="1200" x="0" y="0" /><polygon fill="#fff" fill-opacity="0.4" points="956,539 956,545 964,545 965,544 965,540 964,540 963,539" stroke="#fff" stroke-width="5" /><polygon fill="#fff" fill-opacity="0.4" points="1123,533 1123,535 1122,536 1122,538 1121,539 1126,539 1125,538 1125,536 1124,535 1124,533" stroke="#fff" stroke-width="5" /><polygon fill="#fff" fill-opacity="0.4" points="987,532 987,534 986,535 986,537 985,538 985,539 989,539 989,536 988,535 988,533" stroke="#fff" stroke-width="5" /><polygon fill="#fff" fill-opacity="0.4" points="1079,531 1079,533 1078,534 1078,536 1077,537 1077,539 1081,539 1081,538 1080,537 1080,534 1079,533" stroke="#fff" stroke-width="5" /><polygon fill="#fff" fill-opacity="0.4" points="1047,529 1047,545 1054,545 1056,543 1056,542 1057,541 1057,532 1056,531 1056,530 1055,530 1054,529" stroke="#fff" stroke-width="5" /><polygon fill="#fff" fill-opacity="0.4" points="956,529 956,533 964,533 965,532 965,531 964,530 964,529" stroke="#fff" stroke-width="5" /><polygon fill="#fff" fill-opacity="0.4" points="929,529 929,535 935,535 936,534 937,534 938,533 938,530 937,529" stroke="#fff" stroke-width="5" /><polygon fill="#fff" fill-opacity="0.4" points="877,430 877,431 953,431 954,430" stroke="#fff" stroke-width="5" /><polygon fill="#fff" fill-opacity="0.4" points="761,430 760,431 859,431 859,430" stroke="#fff" stroke-width="5" /><polygon fill="#fff" fill-opacity="0.4" points="877,425 877,427 953,427 954,426 954,425" stroke="#fff" stroke-width="5" /><polygon fill="#fff" fill-opacity="0.4" points="763,424 763,425 762,426 762,427 859,427 859,425 764,425" stroke="#fff" stroke-width="5" /><polygon fill="#fff" fill-opacity="0.4" points="877,420 877,422 953,422 954,421 954,420" stroke="#fff" stroke-width="5" /><polygon fill="#fff" fill-opacity="0.4" points="765,419 765,420 764,421 764,422 859,422 859,420 766,420" stroke="#fff" stroke-width="5" /><polygon fill="#fff" fill-opacity="0.4" points="877,415 877,417 953,417 954,416 954,415" stroke="#fff" stroke-width="5" /><polygon fill="#fff" fill-opacity="0.4" points="767,415 767,416 766,417 859,417 859,415" stroke="#fff" stroke-width="5" /><polygon fill="#fff" fill-opacity="0.4" points="877,410 877,412 953,412 954,411 954,410" stroke="#fff" stroke-width="5" /><polygon fill="#fff" fill-opacity="0.4" points="769,410 769,412 859,412 859,410" stroke="#fff" stroke-width="5" /><polygon fill="#fff" fill-opacity="0.4" points="877,405 877,407 954,407 954,405" stroke="#fff" stroke-width="5" /><polygon fill="#fff" fill-opacity="0.4" points="772,405 771,406 771,407 859,407 859,405" stroke="#fff" stroke-width="5" /><polygon fill="#fff" fill-opacity="0.4" points="877,400 877,402 954,402 954,400" stroke="#fff" stroke-width="5" /><polygon fill="#fff" fill-opacity="0.4" points="774,400 773,401 773,402 859,402 859,400" stroke="#fff" stroke-width="5" /><polygon fill="#fff" fill-opacity="0.4" points="459,308 459,309 458,310 458,312 457,313 457,315 456,316 456,318 455,319 455,321 454,322 454,324 453,325 453,327 452,328 452,330 451,331 451,334 450,335 450,337 449,338 468,338 468,336 467,335 467,333 466,332 466,330 465,329 465,327 464,326 464,324 463,323 463,321 462,320 462,318 461,317 461,314 460,313 460,311 459,310" stroke="#fff" stroke-width="5" /><polygon fill="#fff" fill-opacity="0.4" points="115,308 115,310 114,311 114,313 113,314 113,316 112,317 112,319 111,320 111,322 110,323 110,325 109,326 109,328 108,329 108,331 107,332 107,334 106,335 106,337 105,338 124,338 124,336 123,335 123,333 122,332 122,330 121,329 121,327 120,326 120,323 119,322 119,320 118,319 118,317 117,316 117,314 116,313 116,311 115,310" stroke="#fff" stroke-width="5" /><polygon fill="#fff" fill-opacity="0.4" points="361,303 361,355 380,355 381,354 383,354 384,353 385,353 386,352 387,352 390,349 390,348 391,347 391,346 392,345 392,344 393,343 393,341 394,340 394,337 395,336 395,319 394,318 394,315 393,314 393,312 392,311 392,310 391,309 391,308 389,306 388,306 387,305 386,305 385,304 383,304 382,303" stroke="#fff" stroke-width="5" /><polygon fill="#fff" fill-opacity="0.4" points="971,290 971,397 971,372 972,371 972,370 973,369 974,370 974,397 976,397 976,395 975,394 975,363 976,362 976,360 977,359 978,360 978,381 979,382 979,397 980,397 980,381 979,380 979,353 980,352 980,351 981,350 982,351 982,367 983,368 983,397 984,397 984,362 983,361 983,344 984,343 984,342 985,341 986,342 986,345 987,346 987,397 988,397 988,340 987,339 987,335 988,334 988,332 989,331 990,331 991,332 991,397 992,397 992,323 994,321 995,322 995,397 997,397 997,396 996,395 996,314 998,312 999,313 999,381 1000,382 1000,397 1001,397 1001,382 1000,381 1000,309 1001,308 1003,310 1003,367 1004,368 1004,397 1005,397 1005,362 1004,361 1004,309 1005,308 1006,308 1007,309 1007,346 1008,347 1008,397 1009,397 1009,340 1008,339 1008,310 1010,308 1011,309 1011,326 1012,327 1012,397 1013,397 1013,327 1012,326 1012,310 1014,308 1015,309 1015,312 1016,313 1016,397 1018,397 1018,396 1017,395 1017,309 1018,308 1020,310 1020,382 1021,383 1021,397 1022,397 1022,382 1021,381 1021,309 1022,308 1024,310 1024,368 1025,369 1025,397 1026,397 1026,362 1025,361 1025,309 1026,308 1027,309 1027,345 1028,346 1028,348 1029,349 1029,397 1030,397 1030,349 1031,348 1032,348 1033,349 1033,397 1034,397 1034,349 1035,348 1036,348 1037,349 1037,397 1039,397 1039,396 1038,395 1038,349 1039,348 1040,349 1040,387 1041,388 1041,397 1045,397 1045,390 1047,388 1048,389 1048,397 1049,397 1049,380 1051,378 1052,379 1052,397 1053,397 1053,371 1054,370 1054,369 1055,368 1056,369 1056,397 1057,397 1057,362 1058,361 1058,360 1059,359 1060,360 1060,397 1061,397 1061,353 1062,352 1062,351 1063,350 1064,351 1064,390 1065,391 1065,397 1066,397 1066,385 1065,384 1065,343 1066,342 1066,341 1067,340 1068,341 1068,371 1069,372 1069,397 1070,397 1070,371 1069,370 1069,334 1070,333 1070,332 1071,331 1072,332 1072,357 1073,358 1073,397 1074,397 1074,351 1073,350 1073,325 1074,324 1074,322 1075,321 1076,322 1076,335 1077,336 1077,397 1078,397 1078,330 1077,329 1077,316 1078,315 1078,313 1079,312 1080,313 1080,316 1081,317 1081,397 1082,397 1082,316 1081,315 1081,310 1083,308 1085,310 1085,391 1086,392 1086,397 1087,397 1087,385 1086,384 1086,309 1087,308 1089,310 1089,371 1090,372 1090,397 1091,397 1091,371 1090,370 1090,309 1091,308 1092,308 1093,309 1093,357 1094,358 1094,397 1095,397 1095,352 1094,351 1094,310 1096,308 1097,309 1097,336 1098,337 1098,397 1099,397 1099,330 1098,329 1098,310 1100,308 1101,309 1101,316 1102,317 1102,397 1103,397 1103,316 1102,315 1102,310 1104,308 1106,310 1106,391 1107,392 1107,397 1108,397 1108,386 1107,385 1107,310 1108,309 1109,310 1109,348 1110,349 1110,371 1111,372 1111,397 1112,397 1112,372 1111,371 1111,349 1112,348 1113,348 1114,349 1114,357 1115,358 1115,397 1116,397 1116,352 1115,351 1115,349 1116,348 1118,348 1119,349 1119,397 1120,397 1120,349 1121,348 1122,349 1122,397 1125,397 1125,390 1126,389 1126,388 1127,387 1128,388 1128,397 1129,397 1129,381 1130,380 1130,379 1131,378 1132,379 1132,397 1133,397 1133,371 1135,369 1136,370 1136,397 1137,397 1137,362 1138,361 1138,360 1139,359 1140,360 1140,395 1141,396 1141,397 1142,397 1142,395 1141,394 1141,353 1142,352 1142,351 1143,350 1144,351 1144,381 1145,382 1145,397 1146,397 1146,376 1145,375 1145,344 1146,343 1146,341 1147,340 1148,341 1148,360 1149,361 1149,397 1150,397 1150,354 1149,353 1149,334 1150,333 1150,332 1151,331 1152,332 1152,340 1153,341 1153,397 1154,397 1154,340 1153,339 1153,325 1154,324 1154,323 1155,322 1156,323 1156,326 1157,327 1157,397 1158,397 1158,321 1157,320 1157,316 1158,315 1158,314 1160,312 1161,313 1161,395 1162,396 1162,397 1163,397 1163,396 1162,395 1162,309 1163,308 1165,310 1165,381 1166,382 1166,397 1167,397 1167,376 1166,375 1166,309 1167,308 1168,308 1169,309 1169,360 1170,361 1170,397 1171,397 1171,355 1170,354 1170,309 1171,308 1172,308 1173,309 1173,340 1174,341 1174,397 1175,397 1175,341 1174,340 1174,310 1176,308 1177,309 1177,326 1178,327 1178,397 1179,397 1179,321 1178,320 1178,310 1180,308 1182,310 1182,397 1184,397 1184,396 1183,395 1183,309 1184,308 1186,310 1186,382 1187,383 1187,397 1188,397 1188,376 1187,375 1187,309 1188,308 1189,309 1189,348 1190,349 1190,360 1191,361 1191,397 1192,397 1192,355 1191,354 1191,349 1192,348 1194,348 1195,349 1195,397 1196,397 1196,349 1197,348 1198,348 1199,349 1199,397 1199,290" stroke="#fff" stroke-width="5" /><polygon fill="#fff" fill-opacity="0.4" points="877,290 877,397 954,397 954,290" stroke="#fff" stroke-width="5" /><polygon fill="#fff" fill-opacity="0.4" points="822,290 822,291 821,292 821,294 820,295 820,296 819,297 819,298 818,299 818,300 817,301 817,303 816,304 816,305 815,306 815,307 814,308 814,309 813,310 813,312 812,313 812,314 811,315 811,316 810,317 810,319 809,320 809,321 808,322 808,323 807,324 807,325 806,326 806,328 805,329 805,330 804,331 804,332 803,333 803,334 802,335 802,337 801,338 801,339 800,340 800,341 799,342 799,343 798,344 798,346 797,347 797,348 796,349 796,350 795,351 795,353 794,354 794,355 793,356 793,357 792,358 792,359 791,360 791,362 790,363 790,364 789,365 789,366 788,367 788,368 787,369 787,371 786,372 786,373 785,374 785,375 784,376 784,377 783,378 783,380 782,381 782,382 859,382 859,290" stroke="#fff" stroke-width="5" /><polygon fill="#fff" fill-opacity="0.4" points="563,290 563,291 561,293 561,294 560,295 560,296 559,297 559,298 558,299 558,300 557,301 557,302 556,303 556,304 554,306 554,307 553,308 553,309 552,310 552,311 551,312 551,313 550,314 550,315 549,316 549,317 548,318 548,319 546,321 546,322 545,323 545,324 544,325 544,326 543,327 543,328 542,329 542,330 541,331 541,332 539,334 539,335 538,336 538,337 537,338 537,369 536,370 520,370 520,371 519,372 519,373 518,374 518,375 517,376 517,378 516,379 516,380 515,381 515,382 514,383 514,384 513,385 513,386 512,387 512,389 511,390 511,391 510,392 510,393 509,394 509,395 508,396 508,398 507,399 507,400 506,401 506,402 505,403 505,404 504,405 504,406 542,406 543,407 543,421 542,422 518,422 518,488 517,489 501,489 500,488 500,422 497,422 496,423 496,424 495,425 495,427 494,428 494,429 493,430 493,431 492,432 492,433 491,434 491,435 490,436 490,438 489,439 489,440 488,441 488,442 487,443 487,444 486,445 486,447 485,448 485,449 484,450 484,451 483,452 483,453 482,454 482,455 481,456 481,458 480,459 480,460 479,461 479,462 478,463 478,464 477,465 477,467 476,468 476,469 475,470 475,471 474,472 474,473 473,474 473,475 472,476 472,478 471,479 471,480 470,481 470,482 469,483 469,484 468,485 468,487 467,488 467,489 466,490 466,491 465,492 465,493 464,494 464,496 463,497 463,498 462,499 462,500 461,501 461,502 460,503 460,504 459,505 459,507 458,508 458,509 457,510 457,511 456,512 456,513 455,514 455,516 454,517 454,518 453,519 453,520 452,521 452,522 451,523 451,524 450,525 450,527 449,528 449,529 448,530 448,531 447,532 447,533 446,534 446,536 445,537 445,538 444,539 444,540 443,541 443,542 442,543 442,544 441,545 441,547 440,548 440,549 439,550 439,551 438,552 438,553 437,554 437,556 436,557 436,558 435,559 435,560 434,561 434,562 433,563 433,564 432,565 432,567 431,568 431,569 430,570 430,571 429,572 429,573 428,574 428,576 427,577 427,578 426,579 426,580 425,581 425,582 424,583 424,585 423,586 423,587 422,588 422,589 421,590 421,591 420,592 420,593 419,594 419,596 418,597 418,598 417,599 417,600 416,601 416,602 415,603 415,605 414,606 414,607 413,608 413,609 412,610 412,611 411,612 411,613 410,614 410,616 409,617 409,618 408,619 408,620 407,621 407,622 406,623 406,625 405,626 405,627 404,628 404,629 403,630 403,631 402,632 402,633 401,634 401,636 400,637 400,638 399,639 399,640 398,641 398,642 397,643 397,645 396,646 396,647 395,648 395,649 394,650 394,651 393,652 393,653 392,654 392,656 391,657 391,658 390,659 390,660 389,661 389,662 388,663 388,665 387,666 387,667 386,668 386,669 385,670 385,671 384,672 384,674 859,674 859,573 860,572 876,572 877,573 877,674 1199,674 1199,489 877,489 877,565 876,566 860,566 859,565 859,489 825,489 824,488 824,487 825,486 825,485 826,484 826,482 827,481 827,480 828,479 828,478 829,477 829,476 830,475 830,473 831,472 831,471 832,470 832,469 833,468 833,467 834,466 834,464 835,463 835,462 836,461 836,460 837,459 837,458 838,457 838,455 839,454 839,453 840,452 840,451 841,450 841,449 842,448 842,446 843,445 843,444 844,443 844,442 843,441 842,441 841,440 840,440 839,439 839,440 838,441 838,443 837,444 837,445 836,446 836,447 835,448 835,449 834,450 834,452 833,453 833,454 832,455 832,456 831,457 831,458 830,459 830,461 829,462 829,463 828,464 828,465 827,466 827,468 826,469 826,470 825,471 825,472 824,473 824,474 823,475 823,477 822,478 822,479 821,480 821,481 820,482 820,483 819,484 819,486 818,487 818,488 817,489 719,489 718,488 719,487 719,485 720,484 720,483 721,482 721,481 722,480 722,479 723,478 723,476 724,475 724,474 725,473 725,472 726,471 726,469 727,468 727,467 728,466 728,465 729,464 729,463 730,462 730,460 731,459 731,458 732,457 732,456 733,455 733,454 734,453 734,451 735,450 735,449 736,448 736,447 737,446 737,445 738,444 738,442 739,441 739,440 740,439 740,438 741,437 741,435 742,434 742,433 743,432 743,431 744,430 744,429 745,428 745,426 746,425 746,424 747,423 747,422 748,421 748,420 749,419 749,417 750,416 750,415 751,414 751,413 752,412 752,411 753,410 753,408 754,407 754,406 755,405 755,404 756,403 756,401 757,400 757,399 758,398 758,397 759,396 759,395 760,394 760,392 761,391 761,390 762,389 762,388 763,387 763,386 764,385 764,383 765,382 765,381 766,380 766,379 767,378 767,377 768,376 768,374 769,373 769,372 770,371 770,370 771,369 771,367 772,366 772,365 773,364 773,363 774,362 774,361 775,360 775,358 776,357 776,356 777,355 777,354 778,353 778,352 779,351 779,349 780,348 780,347 781,346 781,345 782,344 782,343 783,342 783,340 784,339 784,338 785,337 785,336 786,335 786,334 787,333 787,331 788,330 788,329 789,328 789,327 790,326 790,324 791,323 791,322 792,321 792,320 793,319 793,318 794,317 794,315 795,314 795,313 796,312 796,311 797,310 797,309 798,308 798,306 799,305 799,304 800,303 800,302 801,301 801,300 802,299 802,297 803,296 803,295 804,294 804,293 805,292 805,290" stroke="#fff" stroke-width="5" /><polygon fill="#fff" fill-opacity="0.4" points="1119,524 1120,523 1127,523 1128,524 1128,526 1129,527 1129,528 1130,529 1130,531 1131,532 1131,534 1132,535 1132,537 1133,538 1133,540 1134,541 1134,542 1135,543 1135,545 1136,546 1136,548 1137,549 1137,550 1136,551 1130,551 1129,550 1129,548 1128,547 1128,546 1119,546 1119,547 1118,548 1118,550 1117,551 1111,551 1110,550 1110,549 1111,548 1111,547 1112,546 1112,544 1113,543 1113,541 1114,540 1114,538 1115,537 1115,535 1116,534 1116,532 1117,531 1117,530 1118,529 1118,527 1119,526" stroke="#fff" stroke-width="5" /><polygon fill="#fff" fill-opacity="0.4" points="1089,524 1090,523 1112,523 1113,524 1113,528 1112,529 1105,529 1105,550 1104,551 1099,551 1098,550 1098,529 1090,529 1089,528" stroke="#fff" stroke-width="5" /><polygon fill="#fff" fill-opacity="0.4" points="1076,523 1082,523 1084,525 1084,527 1085,528 1085,530 1086,531 1086,533 1087,534 1087,536 1088,537 1088,538 1089,539 1089,541 1090,542 1090,544 1091,545 1091,547 1092,548 1092,550 1091,551 1086,551 1084,549 1084,547 1083,546 1074,546 1074,548 1073,549 1073,550 1072,551 1067,551 1066,550 1066,548 1067,547 1067,545 1068,544 1068,542 1069,541 1069,539 1070,538 1070,537 1071,536 1071,534 1072,533 1072,531 1073,530 1073,528 1074,527 1074,525" stroke="#fff" stroke-width="5" /><polygon fill="#fff" fill-opacity="0.4" points="1040,524 1041,523 1057,523 1058,524 1059,524 1063,528 1063,529 1064,530 1064,533 1065,534 1065,539 1064,540 1064,543 1063,544 1063,545 1061,547 1061,548 1060,549 1059,549 1058,550 1057,550 1056,551 1041,551 1040,550" stroke="#fff" stroke-width="5" /><polygon fill="#fff" fill-opacity="0.4" points="1003,524 1004,523 1010,523 1011,524 1011,525 1012,526 1012,527 1013,528 1013,529 1015,531 1015,532 1016,533 1016,534 1017,535 1017,536 1019,538 1019,539 1019,524 1020,523 1025,523 1026,524 1026,550 1025,551 1020,551 1017,548 1017,547 1016,546 1016,545 1015,544 1015,543 1013,541 1013,540 1012,539 1012,538 1011,537 1011,536 1010,535 1010,550 1009,551 1004,551 1003,550" stroke="#fff" stroke-width="5" /><polygon fill="#fff" fill-opacity="0.4" points="983,524 984,523 991,523 992,524 992,526 993,527 993,529 994,530 994,532 995,533 995,535 996,536 996,537 997,538 997,540 998,541 998,543 999,544 999,546 1000,547 1000,549 1001,550 1000,551 994,551 993,550 993,549 992,548 992,546 983,546 982,547 982,549 980,551 975,551 974,550 974,549 975,548 975,546 976,545 976,543 977,542 977,540 978,539 978,538 979,537 979,535 980,534 980,532 981,531 981,529 982,528 982,526 983,525" stroke="#fff" stroke-width="5" /><polygon fill="#fff" fill-opacity="0.4" points="949,524 950,523 967,523 971,527 971,528 972,529 972,532 971,533 971,534 969,536 972,539 972,541 973,542 972,543 972,546 968,550 967,550 966,551 950,551 949,550" stroke="#fff" stroke-width="5" /><polygon fill="#fff" fill-opacity="0.4" points="922,524 923,523 940,523 941,524 942,524 943,525 943,526 945,528 945,534 944,535 944,536 942,538 944,540 944,542 945,543 945,549 946,550 945,551 939,551 938,550 938,549 937,548 937,542 936,541 929,541 929,550 928,551 923,551 922,550" stroke="#fff" stroke-width="5" /><polygon fill="#fff" fill-opacity="0.4" points="894,524 895,523 901,523 902,524 902,544 903,545 904,545 905,546 907,546 908,545 909,545 910,544 910,524 911,523 917,523 918,524 918,543 917,544 917,546 916,547 916,548 914,550 913,550 912,551 911,551 910,552 903,552 902,551 900,551 895,546 895,543 894,542" stroke="#fff" stroke-width="5" /><polygon fill="#fff" fill-opacity="0.4" points="556,473 557,472 572,472 574,474 574,488 573,489 557,489 556,488" stroke="#fff" stroke-width="5" /><polygon fill="#fff" fill-opacity="0.4" points="556,408 557,407 573,407 574,408 574,431 573,432 573,440 572,441 572,448 571,449 571,457 570,458 570,465 569,466 561,466 560,465 560,461 559,460 559,453 558,452 558,445 557,444 557,436 556,435" stroke="#fff" stroke-width="5" /><polygon fill="#fff" fill-opacity="0.4" points="512,290 513,291 513,292 514,293 514,294 515,295 515,296 516,297 516,298 517,299 517,300 518,301 518,302 519,303 519,304 520,305 520,306 521,307 521,308 522,309 522,311 523,312 523,313 524,314 524,315 525,316 525,317 526,318 526,319 527,320 527,321 528,322 528,323 528,322 529,321 529,319 530,318 530,317 531,316 531,315 532,314 532,313 533,312 533,311 534,310 534,308 535,307 535,306 536,305 536,304 537,303 537,302 538,301 538,300 539,299 539,297 540,296 540,295 541,294 541,293 542,292 542,291 543,290" stroke="#fff" stroke-width="5" /><polygon fill="#fff" fill-opacity="0.4" points="264,290 264,320 273,311 273,310 288,295 288,294 292,290" stroke="#fff" stroke-width="5" /><polygon fill="#fff" fill-opacity="0.4" points="66,290 66,369 65,370 49,370 48,369 48,334 18,334 18,369 17,370 0,370 0,406 201,406 202,405 219,405 220,406 492,406 492,405 493,404 493,403 494,402 494,401 495,400 495,398 496,397 496,396 497,395 497,394 498,393 498,392 499,391 499,389 500,388 500,387 501,386 501,385 502,384 502,383 503,382 503,380 504,379 504,378 505,377 505,376 506,375 506,374 507,373 507,371 508,370 508,369 509,368 509,367 510,366 510,364 511,363 511,362 512,361 512,360 513,359 513,358 514,357 514,355 515,354 515,353 516,352 516,351 517,350 517,349 518,348 518,338 517,337 517,336 516,335 516,334 515,333 515,332 513,330 513,329 512,328 512,327 511,326 511,325 510,324 510,323 508,321 508,320 507,319 507,318 506,317 506,316 505,315 505,314 503,312 503,311 502,310 502,309 501,308 501,307 500,306 500,305 498,303 498,302 497,301 497,300 496,299 496,298 495,297 495,296 493,294 493,293 492,292 492,291 491,290 470,290 470,291 471,292 471,294 472,295 472,297 473,298 473,300 474,301 474,302 475,303 475,305 476,306 476,308 477,309 477,311 478,312 478,314 479,315 479,317 480,318 480,319 481,320 481,322 482,323 482,325 483,326 483,328 484,329 484,331 485,332 485,333 486,334 486,336 487,337 487,339 488,340 488,342 489,343 489,345 490,346 490,348 491,349 491,350 492,351 492,353 493,354 493,356 494,357 494,359 495,360 495,362 496,363 496,365 497,366 497,367 498,368 498,369 497,370 479,370 478,369 478,367 477,366 477,364 476,363 476,361 475,360 475,358 474,357 474,354 444,354 444,355 443,356 443,358 442,359 442,361 441,362 441,364 440,365 440,367 439,368 439,369 438,370 421,370 420,369 420,368 421,367 421,365 422,364 422,362 423,361 423,359 424,358 424,357 425,356 425,354 426,353 426,351 427,350 427,348 428,347 428,345 429,344 429,343 430,342 430,340 431,339 431,337 432,336 432,334 433,333 433,331 434,330 434,329 435,328 435,326 436,325 436,323 437,322 437,320 438,319 438,317 439,316 439,315 440,314 440,312 441,311 441,309 442,308 442,306 443,305 443,303 444,302 444,301 445,300 445,298 446,297 446,295 447,294 447,292 448,291 448,290 393,290 394,290 395,291 396,291 397,292 398,292 400,294 401,294 405,298 405,299 407,301 407,302 409,304 409,305 410,306 410,307 411,308 411,310 412,311 412,315 413,316 413,321 414,322 414,332 413,333 413,339 412,340 412,344 411,345 411,347 410,348 410,349 409,350 409,352 407,354 407,355 406,356 406,357 397,366 396,366 395,367 394,367 393,368 391,368 390,369 388,369 387,370 344,370 343,369 343,290 315,290 300,305 300,306 284,322 286,324 286,325 288,327 288,328 291,331 291,332 294,335 294,336 296,338 296,339 299,342 299,343 302,346 302,347 305,350 305,351 307,353 307,354 310,357 310,358 313,361 313,362 316,365 316,366 318,368 318,369 317,370 296,370 295,369 295,368 293,366 293,365 290,362 290,361 288,359 288,358 285,355 285,354 283,352 283,351 280,348 280,347 278,345 278,344 276,342 276,341 273,338 273,337 271,335 264,342 264,369 263,370 247,370 246,369 246,290 216,290 217,290 218,291 219,291 221,293 222,293 227,298 227,299 229,301 229,302 231,304 231,305 232,306 232,308 233,309 233,312 234,313 234,315 233,316 217,316 215,314 215,313 214,312 214,310 212,308 212,307 210,305 209,305 207,303 205,303 204,302 193,302 192,303 190,303 188,305 187,305 184,308 184,309 182,311 182,313 181,314 181,315 180,316 180,319 179,320 179,339 180,340 180,343 181,344 181,346 183,348 183,349 188,354 189,354 190,355 191,355 192,356 195,356 196,357 201,357 202,356 205,356 206,355 207,355 208,354 209,354 212,351 212,350 213,349 213,348 214,347 214,346 215,345 215,343 217,341 232,341 233,342 233,346 232,347 232,349 231,350 231,352 230,353 230,354 229,355 229,356 227,358 227,359 220,366 219,366 217,368 216,368 215,369 214,369 213,370 212,370 211,371 209,371 208,372 202,372 201,373 195,373 194,372 188,372 187,371 185,371 184,370 182,370 181,369 180,369 179,368 178,368 175,365 174,365 169,360 169,359 166,356 166,355 165,354 165,353 164,352 164,351 163,350 163,348 162,347 162,344 161,343 161,339 160,338 160,321 161,320 161,316 162,315 162,312 163,311 163,309 164,308 164,307 165,306 165,305 166,304 166,303 168,301 168,300 175,293 176,293 178,291 179,291 180,290 126,290 126,291 127,292 127,294 128,295 128,296 129,297 129,299 130,300 130,302 131,303 131,305 132,306 132,308 133,309 133,311 134,312 134,313 135,314 135,316 136,317 136,319 137,320 137,322 138,323 138,325 139,326 139,327 140,328 140,330 141,331 141,333 142,334 142,336 143,337 143,339 144,340 144,342 145,343 145,344 146,345 146,347 147,348 147,350 148,351 148,353 149,354 149,356 150,357 150,359 151,360 151,361 152,362 152,364 153,365 153,367 154,368 154,369 153,370 135,370 134,369 134,367 133,366 133,364 132,363 132,360 131,359 131,357 130,356 130,354 100,354 100,355 99,356 99,358 98,359 98,361 97,362 97,364 96,365 96,367 95,368 95,369 94,370 77,370 76,369 76,368 77,367 77,365 78,364 78,362 79,361 79,360 80,359 80,357 81,356 81,354 82,353 82,351 83,350 83,349 84,348 84,346 85,345 85,343 86,342 86,340 87,339 87,337 88,336 88,334 89,333 89,332 90,331 90,329 91,328 91,326 92,325 92,323 93,322 93,320 94,319 94,318 95,317 95,315 96,314 96,312 97,311 97,309 98,308 98,306 99,305 99,304 100,303 100,301 101,300 101,298 102,297 102,295 103,294 103,292 104,291 104,290" stroke="#fff" stroke-width="5" /><polygon fill="#fff" fill-opacity="0.4" points="18,290 18,319 48,319 48,290" stroke="#fff" stroke-width="5" /><polygon fill="#fff" fill-opacity="0.4" points="130,205 130,207 129,208 129,210 128,211 128,212 133,212 132,211 132,209 131,208 131,206" stroke="#fff" stroke-width="5" /><polygon fill="#fff" fill-opacity="0.4" points="785,204 784,205 782,205 781,206 778,206 777,207 773,207 772,208 770,208 769,209 768,209 766,211 766,212 765,213 765,217 766,218 766,219 768,221 769,221 770,222 775,222 776,221 778,221 779,220 780,220 784,216 784,214 785,213" stroke="#fff" stroke-width="5" /><polygon fill="#fff" fill-opacity="0.4" points="214,202 213,203 213,205 212,206 212,215 213,216 213,218 214,219 216,219 218,217 218,204 217,203 217,202" stroke="#fff" stroke-width="5" /><polygon fill="#fff" fill-opacity="0.4" points="162,202 161,203 161,204 160,205 160,215 161,216 161,218 162,219 164,219 165,218 165,217 166,216 166,204 165,203 165,202" stroke="#fff" stroke-width="5" /><polygon fill="#fff" fill-opacity="0.4" points="1158,184 1157,185 1156,185 1155,186 1154,186 1153,187 1153,188 1151,190 1151,192 1150,193 1150,195 1173,195 1172,194 1172,191 1171,190 1171,189 1167,185 1165,185 1164,184" stroke="#fff" stroke-width="5" /><polygon fill="#fff" fill-opacity="0.4" points="530,170 529,171 529,172 528,173 528,174 527,175 527,176 525,178 525,179 524,180 524,181 522,183 522,184 521,185 521,186 520,187 520,188 518,190 518,191 517,192 517,193 516,194 516,195 514,197 514,198 513,199 513,200 512,201 512,202 529,202 530,201" stroke="#fff" stroke-width="5" /><polygon fill="#fff" fill-opacity="0.4" points="398,165 397,166 396,166 393,169 393,170 392,171 392,173 391,174 391,180 390,181 390,204 391,205 391,210 392,211 392,214 393,215 393,216 394,217 394,218 395,218 397,220 404,220 405,219 406,219 408,217 408,216 409,215 409,213 410,212 410,208 411,207 411,178 410,177 410,173 409,172 409,170 408,169 408,168 406,166 405,166 404,165" stroke="#fff" stroke-width="5" /><polygon fill="#fff" fill-opacity="0.4" points="214,162 213,163 213,177 214,178 214,179 217,179 218,178 218,177 219,176 219,165 218,164 218,162" stroke="#fff" stroke-width="5" /><polygon fill="#fff" fill-opacity="0.4" points="162,162 161,163 161,167 160,168 160,173 161,174 161,178 162,179 165,179 166,178 166,176 167,175 167,166 166,165 166,163 165,162" stroke="#fff" stroke-width="5" /><polygon fill="#fff" fill-opacity="0.4" points="125,162 125,168 132,168 133,167 134,167 135,166 135,164 134,163 134,162" stroke="#fff" stroke-width="5" /><polygon fill="#fff" fill-opacity="0.4" points="667,135 667,136 666,137 666,138 665,139 665,140 664,141 664,142 663,143 663,144 662,145 662,146 661,147 661,149 660,150 660,151 659,152 659,153 658,154 658,155 657,156 657,157 656,158 656,159 655,160 655,161 654,162 654,164 653,165 653,166 652,167 652,168 651,169 651,170 650,171 650,172 649,173 649,174 648,175 648,177 647,178 647,179 646,180 646,181 645,182 645,183 644,184 644,185 643,186 643,187 642,188 642,190 641,191 641,192 640,193 640,194 639,195 639,196 638,197 638,198 637,199 637,200 636,201 636,203 635,204 635,205 634,206 634,207 633,208 633,209 632,210 632,211 631,212 631,213 630,214 630,216 629,217 629,218 628,219 628,220 627,221 627,222 626,223 626,224 625,225 625,226 624,227 624,228 623,229 623,231 622,232 622,233 621,234 621,235 620,236 620,237 619,238 619,239 618,240 618,241 617,242 617,244 616,245 616,246 615,247 615,248 614,249 614,250 613,251 859,251 859,151 860,150 876,150 877,151 877,251 954,251 954,172 955,171 969,171 970,172 970,180 971,179 971,178 977,172 978,172 979,171 980,171 981,170 989,170 990,171 990,186 989,187 982,187 981,188 978,188 977,189 976,189 973,192 973,193 972,194 972,197 971,198 971,251 1199,251 1199,135" stroke="#fff" stroke-width="5" /><polygon fill="#fff" fill-opacity="0.4" points="997,172 998,171 1014,171 1015,172 1015,212 1016,213 1016,216 1019,219 1021,219 1022,220 1026,220 1027,219 1030,219 1034,215 1034,214 1035,213 1035,210 1036,209 1036,172 1037,171 1052,171 1053,172 1053,232 1052,233 1038,233 1037,232 1037,226 1033,230 1032,230 1030,232 1029,232 1028,233 1026,233 1025,234 1012,234 1011,233 1009,233 1008,232 1007,232 1000,225 1000,223 999,222 999,220 998,219 998,213 997,212" stroke="#fff" stroke-width="5" /><polygon fill="#fff" fill-opacity="0.4" points="842,171 843,170 850,170 851,171 851,186 850,187 843,187 842,188 839,188 838,189 837,189 834,192 834,193 833,194 833,198 832,199 832,232 831,233 816,233 815,232 815,172 816,171 830,171 831,172 831,180 833,178 833,177 838,172 839,172 840,171" stroke="#fff" stroke-width="5" /><polygon fill="#fff" fill-opacity="0.4" points="766,171 767,170 785,170 786,171 789,171 790,172 791,172 792,173 793,173 794,174 795,174 801,180 801,182 802,183 802,219 803,220 803,227 806,230 806,232 805,233 788,233 787,232 787,231 786,230 786,227 785,227 781,231 780,231 779,232 778,232 777,233 776,233 775,234 772,234 771,235 763,235 762,234 760,234 759,233 757,233 755,231 754,231 751,228 751,227 749,225 749,223 748,222 748,210 749,209 749,208 750,207 750,206 751,205 751,204 755,200 756,200 757,199 758,199 759,198 760,198 761,197 764,197 765,196 769,196 770,195 777,195 778,194 781,194 782,193 783,193 785,191 785,187 783,185 782,185 781,184 772,184 771,185 770,185 767,188 767,191 766,192 751,192 750,191 750,186 751,185 751,183 752,182 752,181 753,180 753,179 758,174 759,174 760,173 761,173 762,172 763,172 764,171" stroke="#fff" stroke-width="5" /><polygon fill="#fff" fill-opacity="0.4" points="1158,170 1159,169 1163,169 1164,170 1169,170 1170,171 1173,171 1174,172 1175,172 1176,173 1177,173 1180,176 1181,176 1183,178 1183,179 1186,182 1186,183 1187,184 1187,185 1188,186 1188,187 1189,188 1189,191 1190,192 1190,198 1191,199 1191,206 1190,207 1149,207 1149,208 1150,209 1150,213 1151,214 1151,215 1155,219 1156,219 1157,220 1160,220 1161,221 1163,221 1164,220 1167,220 1168,219 1169,219 1171,217 1171,216 1173,214 1189,214 1190,215 1190,216 1189,217 1189,219 1188,220 1188,221 1186,223 1186,224 1180,230 1179,230 1178,231 1177,231 1176,232 1175,232 1174,233 1173,233 1172,234 1169,234 1168,235 1156,235 1155,234 1152,234 1151,233 1150,233 1149,232 1148,232 1147,231 1146,231 1145,230 1144,230 1136,222 1136,221 1135,220 1135,219 1134,218 1134,216 1133,215 1133,212 1132,211 1132,194 1133,193 1133,190 1134,189 1134,187 1135,186 1135,185 1136,184 1136,183 1138,181 1138,180 1143,175 1144,175 1146,173 1147,173 1148,172 1149,172 1150,171 1152,171 1153,170" stroke="#fff" stroke-width="5" /><polygon fill="#fff" fill-opacity="0.4" points="910,170 911,169 918,169 919,170 925,170 926,171 928,171 929,172 930,172 931,173 932,173 933,174 934,174 938,178 938,179 940,181 940,183 941,184 941,187 942,188 942,190 941,191 925,191 924,190 924,187 921,184 920,184 919,183 910,183 909,184 908,184 906,186 906,189 908,191 909,191 910,192 913,192 914,193 917,193 918,194 921,194 922,195 925,195 926,196 928,196 929,197 931,197 932,198 933,198 934,199 935,199 942,206 942,207 943,208 943,211 944,212 944,216 943,217 943,220 942,221 942,223 940,225 940,226 936,230 935,230 933,232 932,232 931,233 929,233 928,234 924,234 923,235 908,235 907,234 903,234 902,233 900,233 899,232 898,232 896,230 895,230 891,226 891,225 889,223 889,222 888,221 888,219 887,218 887,213 888,212 903,212 905,214 905,217 908,220 910,220 911,221 922,221 923,220 924,220 926,218 926,215 924,213 923,213 922,212 920,212 919,211 916,211 915,210 913,210 912,209 908,209 907,208 905,208 904,207 902,207 901,206 899,206 898,205 897,205 895,203 894,203 892,201 892,200 890,198 890,197 889,196 889,185 890,184 890,183 891,182 891,181 892,180 892,179 897,174 898,174 900,172 901,172 902,171 904,171 905,170" stroke="#fff" stroke-width="5" /><polygon fill="#fff" fill-opacity="0.4" points="1067,151 1068,150 1084,150 1085,151 1085,177 1090,172 1091,172 1092,171 1094,171 1095,170 1100,170 1101,169 1102,169 1103,170 1108,170 1109,171 1111,171 1112,172 1113,172 1114,173 1115,173 1120,178 1120,179 1122,181 1122,183 1123,184 1123,232 1122,233 1107,233 1106,232 1106,193 1105,192 1105,189 1104,188 1104,187 1103,186 1102,186 1101,185 1100,185 1099,184 1094,184 1093,185 1091,185 1089,187 1088,187 1088,188 1086,190 1086,192 1085,193 1085,232 1084,233 1068,233 1067,232" stroke="#fff" stroke-width="5" /><polygon fill="#fff" fill-opacity="0.4" points="671,151 672,150 689,150 690,151 690,182 699,173 699,172 714,157 714,156 720,150 742,150 743,151 710,184 711,185 711,186 713,188 713,189 716,192 716,193 719,196 719,197 722,200 722,201 724,203 724,204 727,207 727,208 730,211 730,212 733,215 733,216 735,218 735,219 738,222 738,223 741,226 741,227 744,230 744,231 745,232 744,233 722,233 721,232 721,231 718,228 718,227 716,225 716,224 714,222 714,221 711,218 711,217 709,215 709,214 706,211 706,210 704,208 704,207 702,205 702,204 699,201 699,200 697,198 690,205 690,232 689,233 672,233 671,232" stroke="#fff" stroke-width="5" /><polygon fill="#fff" fill-opacity="0.4" points="0,135 0,251 572,251 572,249 573,248 573,247 574,246 574,245 575,244 575,243 576,242 576,240 577,239 577,238 578,237 578,236 579,235 579,234 580,233 580,231 581,230 581,229 582,228 582,227 583,226 583,225 584,224 584,222 585,221 585,220 586,219 586,218 587,217 587,215 588,214 588,213 589,212 589,211 590,210 590,209 591,208 591,206 592,205 592,204 593,203 593,202 594,201 594,200 595,199 595,197 596,196 596,195 597,194 597,193 598,192 598,191 599,190 599,188 600,187 600,186 601,185 601,184 602,183 602,182 603,181 603,179 604,178 604,177 605,176 605,175 606,174 606,172 607,171 607,170 608,169 608,168 609,167 609,166 610,165 610,163 611,162 611,161 612,160 612,159 613,158 613,157 614,156 614,154 615,153 615,152 616,151 616,150 617,149 617,148 618,147 618,145 619,144 619,143 620,142 620,141 621,140 621,138 622,137 622,136 623,135" stroke="#fff" stroke-width="5" /><polygon fill="#fff" fill-opacity="0.4" points="248,218 249,217 254,217 255,218 255,223 254,224 249,224 248,223" stroke="#fff" stroke-width="5" /><polygon fill="#fff" fill-opacity="0.4" points="196,218 197,217 202,217 203,218 203,223 202,224 197,224 196,223" stroke="#fff" stroke-width="5" /><polygon fill="#fff" fill-opacity="0.4" points="282,210 283,209 288,209 289,210 289,237 288,238 274,238 273,237 273,233 274,232 282,232" stroke="#fff" stroke-width="5" /><polygon fill="#fff" fill-opacity="0.4" points="63,210 64,209 68,209 69,210 69,231 70,232 77,232 78,233 78,237 77,238 64,238 63,237" stroke="#fff" stroke-width="5" /><polygon fill="#fff" fill-opacity="0.4" points="232,197 233,196 239,196 240,197 241,197 245,201 245,206 244,207 244,208 243,209 243,210 246,213 246,218 245,219 245,220 241,224 239,224 238,225 234,225 233,224 231,224 227,220 227,219 226,218 226,216 228,214 231,214 233,216 233,218 234,219 237,219 239,217 239,214 238,213 236,213 235,212 234,212 233,211 233,208 234,207 237,207 238,206 238,203 237,202 234,202 233,203 233,205 232,206 228,206 227,205 227,201 231,197" stroke="#fff" stroke-width="5" /><polygon fill="#fff" fill-opacity="0.4" points="211,197 212,196 218,196 219,197 220,197 224,201 224,203 225,204 225,216 224,217 224,219 223,220 223,221 220,224 218,224 217,225 213,225 212,224 211,224 210,223 209,223 208,222 208,221 207,220 207,219 206,218 206,214 205,213 205,207 206,206 206,203 207,202 207,200 210,197" stroke="#fff" stroke-width="5" /><polygon fill="#fff" fill-opacity="0.4" points="180,197 181,196 187,196 188,197 189,197 193,201 193,203 194,204 194,207 193,208 193,209 192,210 192,211 190,213 189,213 186,216 185,216 183,218 193,218 194,219 194,223 193,224 175,224 174,223 174,221 175,220 175,218 177,216 177,215 178,214 179,214 183,210 184,210 186,208 186,207 187,206 187,204 186,203 186,202 182,202 182,203 181,204 181,206 180,207 176,207 174,205 175,204 175,201 179,197" stroke="#fff" stroke-width="5" /><polygon fill="#fff" fill-opacity="0.4" points="159,197 160,196 166,196 167,197 168,197 171,200 171,201 172,202 172,204 173,205 173,216 172,217 172,219 171,220 171,221 168,224 166,224 165,225 161,225 160,224 159,224 158,223 157,223 156,222 156,221 155,220 155,219 154,218 154,216 153,215 153,206 154,205 154,202 155,201 155,200 158,197" stroke="#fff" stroke-width="5" /><polygon fill="#fff" fill-opacity="0.4" points="126,197 127,196 134,196 135,197 135,199 136,200 136,202 137,203 137,204 138,205 138,207 139,208 139,210 140,211 140,213 141,214 141,216 142,217 142,219 143,220 143,221 144,222 144,223 143,224 137,224 136,223 136,221 135,220 135,219 126,219 125,220 125,222 123,224 118,224 117,223 117,222 118,221 118,219 119,218 119,217 120,216 120,214 121,213 121,211 122,210 122,208 123,207 123,205 124,204 124,203 125,202 125,200 126,199" stroke="#fff" stroke-width="5" /><polygon fill="#fff" fill-opacity="0.4" points="99,196 100,195 108,195 109,196 110,196 115,201 115,204 114,205 109,205 108,204 108,203 106,201 102,201 101,202 100,202 100,205 101,205 102,206 105,206 106,207 109,207 110,208 111,208 112,209 113,209 115,211 115,212 116,213 116,218 115,219 115,220 112,223 111,223 110,224 108,224 107,225 102,225 101,224 98,224 93,219 93,215 94,214 98,214 100,216 100,217 101,218 102,218 103,219 106,219 107,218 108,218 109,217 109,215 108,214 106,214 105,213 102,213 101,212 99,212 98,211 97,211 93,207 93,201 95,199 95,198 96,197 97,197 98,196" stroke="#fff" stroke-width="5" /><polygon fill="#fff" fill-opacity="0.4" points="282,180 283,179 288,179 289,180 289,188 297,188 298,189 298,194 297,195 289,195 289,203 288,204 283,204 282,203 282,195 274,195 273,194 273,189 274,188 282,188" stroke="#fff" stroke-width="5" /><polygon fill="#fff" fill-opacity="0.4" points="62,180 63,179 69,179 70,180 70,188 78,188 79,189 79,194 78,195 70,195 70,203 69,204 63,204 62,203 62,195 54,195 53,194 53,189 54,188 62,188" stroke="#fff" stroke-width="5" /><polygon fill="#fff" fill-opacity="0.4" points="249,178 250,177 254,177 256,179 256,183 255,184 250,184 249,183" stroke="#fff" stroke-width="5" /><polygon fill="#fff" fill-opacity="0.4" points="197,178 198,177 202,177 204,179 204,183 203,184 198,184 197,183" stroke="#fff" stroke-width="5" /><polygon fill="#fff" fill-opacity="0.4" points="233,157 234,156 239,156 240,157 241,157 245,161 245,167 243,169 245,171 245,172 246,173 246,179 241,184 239,184 238,185 235,185 234,184 232,184 231,183 230,183 228,181 228,180 227,179 227,176 228,175 232,175 233,176 233,177 234,178 234,179 238,179 239,178 239,177 240,176 240,175 239,174 239,173 237,173 236,172 235,172 234,171 234,168 235,167 238,167 239,166 239,163 238,162 234,162 234,163 233,164 233,165 232,166 228,166 227,165 227,163 228,162 228,161 232,157" stroke="#fff" stroke-width="5" /><polygon fill="#fff" fill-opacity="0.4" points="212,157 213,156 218,156 219,157 220,157 221,158 222,158 223,159 223,160 224,161 224,162 225,163 225,169 226,170 226,171 225,172 225,178 224,179 224,180 220,184 218,184 217,185 214,185 213,184 211,184 208,181 208,180 207,179 207,177 206,176 206,165 207,164 207,162 208,161 208,160 211,157" stroke="#fff" stroke-width="5" /><polygon fill="#fff" fill-opacity="0.4" points="185,156 188,156 189,157 189,183 188,184 183,184 182,183 182,166 177,166 176,165 176,162 177,161 180,161 181,160 182,160 183,159 183,158" stroke="#fff" stroke-width="5" /><polygon fill="#fff" fill-opacity="0.4" points="160,157 161,156 166,156 167,157 168,157 172,161 172,162 173,163 173,177 172,178 172,180 168,184 166,184 165,185 162,185 161,184 159,184 156,181 156,180 155,179 155,177 154,176 154,165 155,164 155,162 156,161 156,160 159,157" stroke="#fff" stroke-width="5" /><polygon fill="#fff" fill-opacity="0.4" points="118,157 119,156 136,156 137,157 138,157 140,159 140,160 141,161 141,167 140,168 140,169 138,171 139,171 140,172 140,174 141,175 141,182 142,183 141,184 135,184 134,183 134,175 133,174 132,174 131,173 125,173 125,183 124,184 119,184 118,183" stroke="#fff" stroke-width="5" /><polygon fill="#fff" fill-opacity="0.4" points="95,157 96,156 115,156 116,157 116,160 114,162 102,162 102,167 113,167 114,168 114,172 113,173 102,173 102,183 101,184 96,184 95,183" stroke="#fff" stroke-width="5" /><polygon fill="#fff" fill-opacity="0.4" points="529,151 545,151 547,153 547,202 555,202 556,203 556,214 555,215 547,215 547,232 546,233 531,233 530,232 530,216 529,215 499,215 498,214 498,200 500,198 500,197 501,196 501,195 503,193 503,192 504,191 504,190 506,188 506,187 507,186 507,185 509,183 509,182 510,181 510,180 512,178 512,177 514,175 514,174 515,173 515,172 517,170 517,169 518,168 518,167 520,165 520,164 521,163 521,162 523,160 523,159 524,158 524,157 526,155 526,154" stroke="#fff" stroke-width="5" /><polygon fill="#fff" fill-opacity="0.4" points="460,151 461,150 465,150 466,151 472,151 473,152 475,152 476,153 477,153 478,154 479,154 480,155 481,155 487,161 487,162 489,164 489,165 490,166 490,168 491,169 491,172 492,173 492,180 491,181 491,185 490,186 490,187 489,188 489,189 488,190 488,191 486,193 486,194 480,200 479,200 476,203 475,203 472,206 471,206 469,208 468,208 465,211 464,211 461,214 460,214 458,216 458,217 491,217 492,218 492,232 491,233 436,233 435,232 435,229 436,228 436,224 437,223 437,220 438,219 438,218 439,217 439,216 440,215 440,214 441,213 441,212 445,208 445,207 447,205 448,205 453,200 454,200 457,197 458,197 461,194 462,194 465,191 466,191 471,186 471,185 473,183 473,181 474,180 474,173 473,172 473,171 472,170 472,169 470,167 469,167 468,166 466,166 465,165 463,165 462,166 459,166 458,167 457,167 456,168 456,169 455,170 455,171 454,172 454,175 453,176 453,180 452,181 437,181 436,180 436,176 437,175 437,170 438,169 438,167 439,166 439,165 440,164 440,163 441,162 441,161 448,154 449,154 450,153 451,153 452,152 454,152 455,151" stroke="#fff" stroke-width="5" /><polygon fill="#fff" fill-opacity="0.4" points="396,151 397,150 405,150 406,151 410,151 411,152 412,152 413,153 414,153 415,154 416,154 423,161 423,162 424,163 424,164 425,165 425,167 426,168 426,170 427,171 427,173 428,174 428,179 429,180 429,205 428,206 428,211 427,212 427,215 426,216 426,218 425,219 425,220 424,221 424,222 423,223 423,224 416,231 415,231 413,233 411,233 410,234 406,234 405,235 396,235 395,234 392,234 391,233 389,233 388,232 387,232 386,231 385,231 379,225 379,224 378,223 378,222 377,221 377,220 376,219 376,217 375,216 375,214 374,213 374,209 373,208 373,202 372,201 372,184 373,183 373,177 374,176 374,172 375,171 375,169 376,168 376,166 377,165 377,164 378,163 378,162 380,160 380,159 384,155 385,155 387,153 388,153 389,152 391,152 392,151" stroke="#fff" stroke-width="5" /><polygon fill="#fff" fill-opacity="0.4" points="334,151 335,150 339,150 340,151 346,151 347,152 349,152 350,153 351,153 352,154 353,154 355,156 356,156 361,161 361,162 363,164 363,166 364,167 364,168 365,169 365,175 366,176 366,178 365,179 365,184 364,185 364,187 363,188 363,189 362,190 362,191 359,194 359,195 356,198 355,198 350,203 349,203 347,205 346,205 343,208 342,208 340,210 339,210 336,213 335,213 331,217 365,217 366,218 366,232 365,233 310,233 309,232 309,227 310,226 310,223 311,222 311,220 312,219 312,217 313,216 313,215 314,214 314,213 317,210 317,209 323,203 324,203 328,199 329,199 331,197 332,197 335,194 336,194 340,190 341,190 344,187 344,186 346,184 346,183 347,182 347,180 348,179 348,174 347,173 347,171 346,170 346,169 344,167 343,167 342,166 340,166 339,165 337,165 336,166 333,166 332,167 331,167 329,169 329,170 328,171 328,174 327,175 327,180 326,181 311,181 310,180 310,174 311,173 311,169 312,168 312,166 313,165 313,164 314,163 314,162 316,160 316,159 319,156 320,156 322,154 323,154 324,153 325,153 326,152 328,152 329,151" stroke="#fff" stroke-width="5" /><polygon fill="#fff" fill-opacity="0.4" points="273,146 274,145 288,145 289,146 289,173 288,174 283,174 282,173 282,151 274,151 273,150" stroke="#fff" stroke-width="5" /><polygon fill="#fff" fill-opacity="0.4" points="63,146 64,145 77,145 78,146 78,150 77,151 70,151 69,152 69,173 68,174 64,174 63,173" stroke="#fff" stroke-width="5" /><polygon fill="#fff" fill-opacity="0.4" points="536,63 535,64 535,66 536,66 537,67 539,67 540,66 541,66 543,64 543,63" stroke="#fff" stroke-width="5" /><polygon fill="#fff" fill-opacity="0.4" points="491,63 491,66 492,66 493,67 494,67 495,66 497,66 499,64 499,63" stroke="#fff" stroke-width="5" /><polygon fill="#fff" fill-opacity="0.4" points="611,62 610,63 606,63 604,65 604,66 606,68 611,68 612,67 613,67 614,66 614,62" stroke="#fff" stroke-width="5" /><polygon fill="#fff" fill-opacity="0.4" points="164,58 164,72 165,72 166,71 167,71 168,70 169,70 171,68 172,68 173,67 174,67 175,66 176,66 178,64 179,64 180,63 181,63 182,62 182,61 181,61 180,60 178,60 176,62 171,62 170,61 169,61 168,60 168,59 167,58" stroke="#fff" stroke-width="5" /><polygon fill="#fff" fill-opacity="0.4" points="224,56 224,68 225,69 225,70 228,70 229,71 232,71 234,69 238,69 239,70 240,70 242,72 242,78 239,81 234,81 230,77 230,75 228,75 227,74 224,74 224,93 225,94 226,93 227,93 229,91 230,91 231,90 232,90 233,89 234,89 236,87 237,87 238,86 239,86 240,85 241,85 243,83 244,83 245,82 246,82 247,81 248,81 250,79 251,79 252,78 253,78 254,77 255,77 257,75 256,74 255,74 253,72 252,72 251,71 250,71 249,70 248,70 246,68 245,68 244,67 243,67 241,65 240,65 239,64 238,64 237,63 236,63 234,61 233,61 232,60 231,60 230,59 229,59 227,57 226,57 225,56" stroke="#fff" stroke-width="5" /><polygon fill="#fff" fill-opacity="0.4" points="393,53 392,54 391,54 391,55 390,56 400,56 399,55 399,54 398,54 397,53" stroke="#fff" stroke-width="5" /><polygon fill="#fff" fill-opacity="0.4" points="367,53 366,54 365,54 364,55 364,57 363,58 363,62 364,63 364,64 366,66 371,66 373,64 373,62 374,61 374,59 373,58 373,55 372,54 371,54 370,53" stroke="#fff" stroke-width="5" /><polygon fill="#fff" fill-opacity="0.4" points="460,44 460,66 463,66 464,65 468,65 469,64 470,64 472,62 472,61 473,60 473,57 474,56 474,54 473,53 473,49 471,47 471,46 470,46 469,45 468,45 467,44" stroke="#fff" stroke-width="5" /><polygon fill="#fff" fill-opacity="0.4" points="335,43 334,44 331,44 330,45 329,45 328,46 328,47 327,48 327,49 326,50 326,60 327,61 327,62 330,65 331,65 332,66 338,66 339,65 340,65 343,62 343,61 344,60 344,57 345,56 345,54 344,53 344,49 342,47 342,46 341,45 340,45 339,44 336,44" stroke="#fff" stroke-width="5" /><polygon fill="#fff" fill-opacity="0.4" points="574,42 574,67 582,67 586,63 586,60 587,59 587,50 586,49 586,47 585,46 585,45 583,43 582,43 581,42" stroke="#fff" stroke-width="5" /><polygon fill="#fff" fill-opacity="0.4" points="164,40 164,53 168,53 170,51 171,51 172,50 175,50 179,54 179,55 180,56 181,56 182,57 185,57 186,58 189,58 190,57 191,57 191,56 189,54 188,54 187,53 186,53 185,52 184,52 182,50 181,50 180,49 179,49 178,48 177,48 175,46 174,46 173,45 172,45 171,44 170,44 168,42 167,42 166,41 165,41" stroke="#fff" stroke-width="5" /><polygon fill="#fff" fill-opacity="0.4" points="96,18 95,19 93,19 92,20 90,20 89,21 88,21 86,23 85,23 84,24 83,24 78,29 78,30 76,32 76,33 74,35 74,36 73,37 73,39 72,40 72,43 71,44 71,56 72,57 72,60 73,61 73,63 74,64 74,65 75,66 75,67 77,69 77,70 83,76 84,76 86,78 87,78 88,79 89,79 90,80 92,80 93,81 95,81 96,82 110,82 111,81 113,81 114,80 115,80 116,79 118,79 119,78 120,78 123,75 124,75 128,71 128,70 130,68 130,67 131,66 131,65 133,63 133,61 134,60 134,57 135,56 134,55 131,55 130,54 119,54 118,53 108,53 107,52 107,53 105,55 101,55 99,53 99,52 98,51 98,49 99,48 99,47 100,46 101,46 102,45 104,45 105,46 106,46 107,47 107,48 109,48 110,49 121,49 122,50 135,50 135,44 134,43 134,40 133,39 133,37 131,35 131,34 130,33 130,32 127,29 127,28 124,25 123,25 121,23 120,23 118,21 116,21 115,20 113,20 112,19 111,19 110,18" stroke="#fff" stroke-width="5" /><polygon fill="#fff" fill-opacity="0.4" points="815,0 815,1 814,2 814,3 813,4 813,6 812,7 812,8 811,9 811,10 810,11 810,13 809,14 809,15 808,16 808,17 807,18 807,19 806,20 806,22 805,23 805,24 804,25 804,26 803,27 803,29 802,30 802,31 801,32 801,33 800,34 800,36 799,37 799,38 798,39 798,40 797,41 797,43 796,44 796,45 795,46 795,47 794,48 794,50 793,51 793,52 792,53 792,54 791,55 791,56 790,57 790,59 789,60 789,61 788,62 788,63 787,64 787,66 786,67 786,68 785,69 785,70 784,71 784,73 783,74 783,75 782,76 782,77 781,78 781,80 780,81 780,82 779,83 779,84 778,85 778,87 777,88 777,89 776,90 776,91 775,92 775,93 774,94 774,96 773,97 773,98 772,99 772,100 771,101 771,103 770,104 770,105 769,106 769,107 768,108 768,110 767,111 767,112 766,113 766,114 765,115 765,116 802,116 803,115 803,114 804,113 804,112 805,111 805,109 806,108 806,107 807,106 807,105 808,104 808,103 809,102 809,101 810,100 810,99 811,98 811,97 812,96 812,94 813,93 813,92 814,91 814,90 815,89 815,88 816,87 816,86 817,85 817,84 818,83 818,81 819,80 819,79 820,78 820,77 821,76 821,75 822,74 822,73 823,72 823,71 824,70 824,68 825,67 825,66 826,65 826,64 827,63 827,62 828,61 828,60 829,59 829,58 830,57 830,55 831,54 831,53 832,52 832,51 833,50 833,49 834,48 834,47 835,46 835,45 836,44 836,42 837,41 837,40 838,39 838,38 839,37 839,36 840,35 840,34 841,33 841,32 842,31 842,30 843,29 843,27 844,26 844,25 845,24 845,23 846,22 846,21 847,20 847,19 848,18 848,17 849,16 849,14 850,13 850,12 851,11 851,10 852,9 852,8 853,7 853,6 854,5 854,4 855,3 855,1 856,0" stroke="#fff" stroke-width="5" /><polygon fill="#fff" fill-opacity="0.4" points="759,0 758,1 758,3 757,4 757,5 756,6 756,7 755,8 755,10 754,11 754,12 753,13 753,14 752,15 752,17 751,18 751,19 750,20 750,21 749,22 749,24 748,25 748,26 747,27 747,28 746,29 746,30 745,31 745,33 744,34 744,35 743,36 743,37 742,38 742,40 741,41 741,42 740,43 740,44 739,45 739,47 738,48 738,49 737,50 737,51 736,52 736,54 735,55 735,56 734,57 734,58 733,59 733,61 732,62 732,63 731,64 731,65 730,66 730,67 729,68 729,70 728,71 728,72 727,73 727,74 726,75 726,77 725,78 725,79 724,80 724,81 723,82 723,84 722,85 722,86 721,87 721,88 720,89 720,91 719,92 719,93 718,94 718,95 717,96 717,98 716,99 716,100 715,101 715,102 714,103 714,104 713,105 713,107 712,108 712,109 711,110 711,111 710,112 710,114 709,115 709,116 746,116 746,115 747,114 747,113 748,112 748,111 749,110 749,109 750,108 750,107 751,106 751,105 752,104 752,102 753,101 753,100 754,99 754,98 755,97 755,96 756,95 756,94 757,93 757,92 758,91 758,89 759,88 759,87 760,86 760,85 761,84 761,83 762,82 762,81 763,80 763,79 764,78 764,77 765,76 765,74 766,73 766,72 767,71 767,70 768,69 768,68 769,67 769,66 770,65 770,64 771,63 771,61 772,60 772,59 773,58 773,57 774,56 774,55 775,54 775,53 776,52 776,51 777,50 777,48 778,47 778,46 779,45 779,44 780,43 780,42 781,41 781,40 782,39 782,38 783,37 783,35 784,34 784,33 785,32 785,31 786,30 786,29 787,28 787,27 788,26 788,25 789,24 789,22 790,21 790,20 791,19 791,18 792,17 792,16 793,15 793,14 794,13 794,12 795,11 795,10 796,9 796,7 797,6 797,5 798,4 798,3 799,2 799,1 800,0" stroke="#fff" stroke-width="5" /><polygon fill="#fff" fill-opacity="0.4" points="0,0 0,116 672,116 673,115 673,114 674,113 674,111 675,110 675,109 676,108 676,107 677,106 677,105 678,104 678,102 679,101 679,100 680,99 680,98 681,97 681,95 682,94 682,93 683,92 683,91 684,90 684,89 685,88 685,86 686,85 686,84 687,83 687,82 688,81 688,80 689,79 689,77 690,76 690,75 691,74 691,73 692,72 692,71 693,70 693,68 694,67 694,66 695,65 695,64 696,63 696,62 697,61 697,59 698,58 698,57 699,56 699,55 700,54 700,52 701,51 701,50 702,49 702,48 703,47 703,46 704,45 704,43 705,42 705,41 706,40 706,39 707,38 707,37 708,36 708,34 709,33 709,32 710,31 710,30 711,29 711,28 712,27 712,25 713,24 713,23 714,22 714,21 715,20 715,18 716,17 716,16 717,15 717,14 718,13 718,12 719,11 719,9 720,8 720,7 721,6 721,5 722,4 722,3 723,2 723,0" stroke="#fff" stroke-width="5" /><polygon fill="#fff" fill-opacity="0.4" points="628,49 629,48 633,48 635,50 635,51 636,52 636,54 637,55 637,56 638,57 638,59 639,60 639,61 640,62 640,64 641,65 641,66 641,65 642,64 642,62 643,61 643,60 644,59 644,58 645,57 645,55 646,54 646,53 647,52 647,50 649,48 653,48 654,49 654,50 653,51 653,52 652,53 652,54 651,55 651,57 650,58 650,59 649,60 649,61 648,62 648,64 647,65 647,66 646,67 646,68 645,69 645,70 644,71 644,73 643,74 643,75 642,76 642,77 641,78 641,80 640,81 640,82 638,84 634,84 633,83 634,82 634,80 635,79 635,78 636,77 636,75 637,74 637,73 638,72 638,71 637,70 637,69 636,68 636,67 635,66 635,65 634,64 634,62 633,61 633,60 632,59 632,58 631,57 631,55 630,54 630,53 629,52 629,51 628,50" stroke="#fff" stroke-width="5" /><polygon fill="#fff" fill-opacity="0.4" points="609,48 610,47 611,47 612,48 615,48 619,52 619,53 620,54 620,68 623,68 624,69 624,72 623,73 617,73 615,71 614,71 612,73 604,73 603,72 602,72 600,70 600,69 599,68 599,63 600,62 600,61 601,60 602,60 603,59 606,59 607,58 613,58 614,57 614,54 613,53 608,53 607,54 606,54 606,55 604,57 603,57 602,56 601,56 600,55 600,54 601,53 601,52 604,49 605,49 606,48" stroke="#fff" stroke-width="5" /><polygon fill="#fff" fill-opacity="0.4" points="537,47 538,46 542,46 543,47 545,47 546,48 547,48 550,51 550,52 551,53 551,72 550,73 545,73 544,72 544,70 541,73 533,73 531,71 530,71 529,70 529,69 528,68 528,66 527,65 527,64 528,63 528,61 531,58 532,58 533,57 543,57 544,56 543,55 543,54 542,54 541,53 538,53 537,54 536,54 533,57 528,52 531,49 532,49 533,48 534,48 535,47" stroke="#fff" stroke-width="5" /><polygon fill="#fff" fill-opacity="0.4" points="492,47 493,46 498,46 499,47 501,47 506,52 506,54 507,55 507,72 506,73 501,73 499,71 498,72 497,72 496,73 489,73 488,72 487,72 484,69 484,68 483,67 483,62 484,61 484,60 486,58 487,58 488,57 499,57 499,55 497,53 494,53 493,54 492,54 489,57 487,55 486,55 484,53 484,52 488,48 489,48 490,47" stroke="#fff" stroke-width="5" /><polygon fill="#fff" fill-opacity="0.4" points="422,47 423,46 426,46 427,47 429,47 433,51 433,52 434,53 434,72 433,73 428,73 426,71 426,54 425,54 424,53 421,53 419,55 419,56 418,57 418,72 417,73 411,73 410,72 410,48 411,47 417,47 418,48 418,49 420,47" stroke="#fff" stroke-width="5" /><polygon fill="#fff" fill-opacity="0.4" points="392,47 393,46 397,46 398,47 400,47 401,48 402,48 405,51 405,52 406,53 406,54 407,55 407,61 405,63 390,63 391,64 391,65 392,65 393,66 398,66 399,65 400,65 401,64 402,64 406,68 402,72 401,72 400,73 391,73 390,72 389,72 384,67 384,66 383,65 383,55 384,54 384,53 385,52 385,51 388,48 389,48 390,47" stroke="#fff" stroke-width="5" /><polygon fill="#fff" fill-opacity="0.4" points="367,47 368,46 372,46 373,47 374,47 375,48 376,48 379,51 379,52 380,53 380,54 381,55 381,64 380,65 380,67 378,69 378,70 377,71 376,71 374,73 366,73 364,71 364,82 363,83 357,83 356,82 356,48 357,47 363,47 364,48 365,47" stroke="#fff" stroke-width="5" /><polygon fill="#fff" fill-opacity="0.4" points="518,38 519,38 520,39 520,47 525,47 526,48 526,52 525,53 520,53 520,66 521,67 523,67 524,66 525,66 526,67 526,72 525,73 517,73 513,69 513,68 512,67 512,53 509,53 508,52 508,48 509,47 512,47 512,43 514,41 515,41" stroke="#fff" stroke-width="5" /><polygon fill="#fff" fill-opacity="0.4" points="452,38 453,37 469,37 470,38 471,38 472,39 473,39 474,40 475,40 478,43 478,44 480,46 480,48 481,49 481,61 480,62 480,64 478,66 478,67 476,69 475,69 473,71 472,71 471,72 468,72 467,73 453,73 452,72" stroke="#fff" stroke-width="5" /><polygon fill="#fff" fill-opacity="0.4" points="570,36 579,36 580,37 583,37 584,38 585,38 586,39 587,39 589,41 589,42 591,44 591,46 592,47 592,49 593,50 593,59 592,60 592,63 591,64 591,65 590,66 590,67 586,71 585,71 584,72 582,72 581,73 569,73 568,72 568,38" stroke="#fff" stroke-width="5" /><polygon fill="#fff" fill-opacity="0.4" points="330,37 331,36 339,36 340,37 342,37 343,38 344,38 350,44 350,45 351,46 351,48 352,49 352,61 351,62 351,63 350,64 350,65 349,66 349,67 345,71 344,71 343,72 342,72 341,73 338,73 337,74 333,74 332,73 329,73 328,72 327,72 325,70 324,70 321,67 321,66 320,65 320,64 319,63 319,62 318,61 318,49 319,48 319,46 320,45 320,44 326,38 327,38 328,37" stroke="#fff" stroke-width="5" /><polygon fill="#fff" fill-opacity="0.4" points="99,11 100,10 106,10 107,11 110,11 111,12 114,12 115,13 117,13 118,14 119,14 120,15 121,15 122,16 123,16 124,17 125,17 135,27 135,28 137,30 137,31 138,32 138,33 139,34 139,35 140,36 140,37 141,38 141,41 142,42 142,51 143,51 144,52 154,52 154,26 155,25 157,25 158,26 159,26 161,28 162,28 163,29 164,29 165,30 166,30 168,32 169,32 170,33 171,33 172,34 173,34 175,36 176,36 177,37 178,37 179,38 180,38 182,40 183,40 184,41 185,41 186,42 187,42 189,44 190,44 191,45 192,45 193,46 194,46 196,48 197,48 198,49 199,49 200,50 201,50 203,52 204,52 205,53 206,53 209,56 209,57 207,59 206,59 205,60 204,60 203,61 202,61 202,63 205,63 206,64 208,64 209,65 211,65 212,66 214,66 215,65 215,41 216,40 217,40 219,42 220,42 221,43 222,43 224,45 225,45 226,46 227,46 228,47 229,47 231,49 232,49 233,50 234,50 235,51 236,51 238,53 239,53 240,54 241,54 243,56 244,56 245,57 246,57 247,58 248,58 250,60 251,60 252,61 253,61 254,62 255,62 257,64 258,64 259,65 260,65 261,66 262,66 264,68 265,68 266,69 267,69 268,70 269,70 271,72 272,72 273,73 274,73 275,74 275,76 274,77 273,77 272,78 271,78 269,80 268,80 267,81 266,81 265,82 264,82 262,84 261,84 260,85 259,85 258,86 257,86 255,88 254,88 253,89 252,89 250,91 249,91 248,92 247,92 246,93 245,93 243,95 242,95 241,96 240,96 238,98 237,98 236,99 235,99 234,100 233,100 231,102 230,102 229,103 228,103 227,104 226,104 225,105 224,105 222,107 221,107 220,108 219,108 218,109 217,109 216,110 215,109 215,72 213,70 211,70 210,69 208,69 207,68 204,68 203,67 201,67 200,66 197,66 196,65 195,66 194,66 193,67 192,67 191,68 190,68 188,70 187,70 186,71 185,71 184,72 183,72 181,74 180,74 179,75 178,75 177,76 176,76 174,78 173,78 172,79 171,79 169,81 168,81 167,82 166,82 165,83 164,83 162,85 161,85 160,86 159,86 157,88 155,88 154,87 154,57 152,57 151,56 142,56 142,58 141,59 141,62 140,63 140,64 139,65 139,66 138,67 138,68 137,69 137,70 135,72 135,73 131,77 131,78 130,79 129,79 125,83 124,83 123,84 122,84 120,86 118,86 117,87 115,87 114,88 112,88 111,89 106,89 105,90 101,90 100,89 95,89 94,88 92,88 91,87 88,87 87,86 86,86 84,84 83,84 82,83 81,83 78,80 77,80 72,75 72,74 70,72 70,71 68,69 68,68 67,67 67,65 66,64 66,63 65,62 65,59 64,58 64,42 65,41 65,38 66,37 66,36 67,35 67,34 68,33 68,31 70,29 70,28 73,25 73,24 77,20 78,20 81,17 82,17 83,16 84,16 86,14 87,14 88,13 91,13 92,12 95,12 96,11" stroke="#fff" stroke-width="5" /></svg>